<svg width="20" height="21" viewBox="0 0 20 21" fill="none" xmlns="http://www.w3.org/2000/svg">
<path d="M11.25 2.16669C11.25 1.47633 10.6904 0.916687 10 0.916687C9.30964 0.916687 8.75 1.47633 8.75 2.16669V9.25002H1.66666C0.976309 9.25002 0.416664 9.80966 0.416664 10.5C0.416664 11.1904 0.976309 11.75 1.66666 11.75H8.75V18.8334C8.75 19.5237 9.30964 20.0834 10 20.0834C10.6904 20.0834 11.25 19.5237 11.25 18.8334V11.75H18.3333C19.0237 11.75 19.5833 11.1904 19.5833 10.5C19.5833 9.80966 19.0237 9.25002 18.3333 9.25002H11.25V2.16669Z" fill="#000"/>
</svg>
