<svg width="21" height="20" viewBox="0 0 21 20" fill="none" xmlns="http://www.w3.org/2000/svg">
<path d="M3 4.16683C3 3.94582 3.0878 3.73385 3.24408 3.57757C3.40036 3.42129 3.61232 3.3335 3.83333 3.3335H17.1667C17.3877 3.3335 17.5996 3.42129 17.7559 3.57757C17.9122 3.73385 18 3.94582 18 4.16683V6.66683H3V4.16683Z" stroke="#000" stroke-width="2" stroke-linejoin="round"/>
<path d="M8.41675 10.8335H12.5834" stroke="#000" stroke-width="2" stroke-linecap="round"/>
<path d="M3.83325 6.66699H17.1666V15.8337C17.1666 16.0547 17.0788 16.2666 16.9225 16.4229C16.7662 16.5792 16.5543 16.667 16.3333 16.667H4.66659C4.44557 16.667 4.23361 16.5792 4.07733 16.4229C3.92105 16.2666 3.83325 16.0547 3.83325 15.8337V6.66699Z" stroke="#000" stroke-width="2" stroke-linejoin="round"/>
</svg>
