<svg width="24" height="25" viewBox="0 0 24 25" fill="none" xmlns="http://www.w3.org/2000/svg">
<path d="M3 5.5C3 4.96957 3.21071 4.46086 3.58579 4.08579C3.96086 3.71071 4.46957 3.5 5 3.5H19C19.5304 3.5 20.0391 3.71071 20.4142 4.08579C20.7893 4.46086 21 4.96957 21 5.5V19.5C21 20.0304 20.7893 20.5391 20.4142 20.9142C20.0391 21.2893 19.5304 21.5 19 21.5H5C4.46957 21.5 3.96086 21.2893 3.58579 20.9142C3.21071 20.5391 3 20.0304 3 19.5V5.5ZM19 5.5H5V19.5H19V5.5ZM12 7.5C12.2652 7.5 12.5196 7.60536 12.7071 7.79289C12.8946 7.98043 13 8.23478 13 8.5V16.5C13 16.7652 12.8946 17.0196 12.7071 17.2071C12.5196 17.3946 12.2652 17.5 12 17.5C11.7348 17.5 11.4804 17.3946 11.2929 17.2071C11.1054 17.0196 11 16.7652 11 16.5V8.5C11 8.23478 11.1054 7.98043 11.2929 7.79289C11.4804 7.60536 11.7348 7.5 12 7.5ZM16 9.5C16.2652 9.5 16.5196 9.60536 16.7071 9.79289C16.8946 9.98043 17 10.2348 17 10.5V16.5C17 16.7652 16.8946 17.0196 16.7071 17.2071C16.5196 17.3946 16.2652 17.5 16 17.5C15.7348 17.5 15.4804 17.3946 15.2929 17.2071C15.1054 17.0196 15 16.7652 15 16.5V10.5C15 10.2348 15.1054 9.98043 15.2929 9.79289C15.4804 9.60536 15.7348 9.5 16 9.5ZM8 11.5C8.26522 11.5 8.51957 11.6054 8.70711 11.7929C8.89464 11.9804 9 12.2348 9 12.5V16.5C9 16.7652 8.89464 17.0196 8.70711 17.2071C8.51957 17.3946 8.26522 17.5 8 17.5C7.73478 17.5 7.48043 17.3946 7.29289 17.2071C7.10536 17.0196 7 16.7652 7 16.5V12.5C7 12.2348 7.10536 11.9804 7.29289 11.7929C7.48043 11.6054 7.73478 11.5 8 11.5Z" fill="#000"/>
</svg>
