<svg width="24" height="25" viewBox="0 0 24 25" fill="none" xmlns="http://www.w3.org/2000/svg">
<path d="M10.3 21.4999C10.4674 21.8044 10.7134 22.0583 11.0125 22.2351C11.3115 22.412 11.6526 22.5053 12 22.5053C12.3474 22.5053 12.6885 22.412 12.9875 22.2351C13.2866 22.0583 13.5326 21.8044 13.7 21.4999M6 8.49994C6 6.90864 6.63214 5.38252 7.75736 4.2573C8.88258 3.13208 10.4087 2.49994 12 2.49994C13.5913 2.49994 15.1174 3.13208 16.2426 4.2573C17.3679 5.38252 18 6.90864 18 8.49994C18 15.4999 21 17.4999 21 17.4999H3C3 17.4999 6 15.4999 6 8.49994Z" stroke="#000" stroke-width="2" stroke-linecap="round" stroke-linejoin="round"/>
</svg>
