<svg width="20" height="20" viewBox="0 0 20 20" fill="none" xmlns="http://www.w3.org/2000/svg">
<g clip-path="url(#clip0_1568_13048)">
<path d="M0 2.18751C0 1.93887 0.098772 1.70041 0.274587 1.52459C0.450403 1.34878 0.68886 1.25001 0.9375 1.25001H6.25375C7.7875 1.25001 9.15 1.98751 10.0037 3.12626C10.4402 2.54284 11.0068 2.06941 11.6585 1.74367C12.3102 1.41793 13.0289 1.24889 13.7575 1.25001H19.0638C19.3124 1.25001 19.5508 1.34878 19.7267 1.52459C19.9025 1.70041 20.0012 1.93887 20.0012 2.18751V15.3125C20.0012 15.5611 19.9025 15.7996 19.7267 15.9754C19.5508 16.1512 19.3124 16.25 19.0638 16.25H13.43C13.0607 16.25 12.6949 16.3227 12.3537 16.4641C12.0125 16.6054 11.7024 16.8126 11.4412 17.0738L10.6637 17.85C10.488 18.0256 10.2497 18.1242 10.0013 18.1242C9.75281 18.1242 9.51453 18.0256 9.33875 17.85L8.56125 17.0738C8.30008 16.8126 7.99003 16.6054 7.6488 16.4641C7.30757 16.3227 6.94184 16.25 6.5725 16.25H0.9375C0.68886 16.25 0.450403 16.1512 0.274587 15.9754C0.098772 15.7996 0 15.5611 0 15.3125L0 2.18751ZM9.06375 15.0925L9.06875 8.75126L9.06625 5.93501C9.06559 5.18952 8.76898 4.47479 8.2416 3.94788C7.71423 3.42098 6.99924 3.12501 6.25375 3.12501H1.875V14.375H6.57125C7.45303 14.375 8.31694 14.6237 9.06375 15.0925ZM10.9438 5.93751L10.9388 15.09C11.6852 14.6226 12.5481 14.3748 13.4288 14.375H18.125V3.12501H13.7563C13.0103 3.12501 12.295 3.42132 11.7675 3.94877C11.2401 4.47621 10.9438 5.19158 10.9438 5.93751Z" fill="#71727A"/>
</g>
<defs>
<clipPath id="clip0_1568_13048">
<rect width="20" height="20" fill="white"/>
</clipPath>
</defs>
</svg>
