<svg width="17" height="16" viewBox="0 0 17 16" fill="none" xmlns="http://www.w3.org/2000/svg">
<path d="M13.1667 3.06673H11.8334V2.40007C11.8334 2.22325 11.7631 2.05368 11.6381 1.92866C11.5131 1.80364 11.3435 1.7334 11.1667 1.7334C10.9899 1.7334 10.8203 1.80364 10.6953 1.92866C10.5703 2.05368 10.5 2.22325 10.5 2.40007V3.06673H6.50004V2.40007C6.50004 2.22325 6.4298 2.05368 6.30478 1.92866C6.17975 1.80364 6.01018 1.7334 5.83337 1.7334C5.65656 1.7334 5.48699 1.80364 5.36197 1.92866C5.23695 2.05368 5.16671 2.22325 5.16671 2.40007V3.06673H3.83337C3.30294 3.06673 2.79423 3.27745 2.41916 3.65252C2.04409 4.02759 1.83337 4.5363 1.83337 5.06673V13.0667C1.83337 13.5972 2.04409 14.1059 2.41916 14.4809C2.79423 14.856 3.30294 15.0667 3.83337 15.0667H13.1667C13.6971 15.0667 14.2058 14.856 14.5809 14.4809C14.956 14.1059 15.1667 13.5972 15.1667 13.0667V5.06673C15.1667 4.5363 14.956 4.02759 14.5809 3.65252C14.2058 3.27745 13.6971 3.06673 13.1667 3.06673ZM13.8334 13.0667C13.8334 13.2435 13.7631 13.4131 13.6381 13.5381C13.5131 13.6632 13.3435 13.7334 13.1667 13.7334H3.83337C3.65656 13.7334 3.48699 13.6632 3.36197 13.5381C3.23695 13.4131 3.16671 13.2435 3.16671 13.0667V8.40006H13.8334V13.0667ZM13.8334 7.06673H3.16671V5.06673C3.16671 4.88992 3.23695 4.72035 3.36197 4.59533C3.48699 4.4703 3.65656 4.40006 3.83337 4.40006H5.16671V5.06673C5.16671 5.24354 5.23695 5.41311 5.36197 5.53814C5.48699 5.66316 5.65656 5.7334 5.83337 5.7334C6.01018 5.7334 6.17975 5.66316 6.30478 5.53814C6.4298 5.41311 6.50004 5.24354 6.50004 5.06673V4.40006H10.5V5.06673C10.5 5.24354 10.5703 5.41311 10.6953 5.53814C10.8203 5.66316 10.9899 5.7334 11.1667 5.7334C11.3435 5.7334 11.5131 5.66316 11.6381 5.53814C11.7631 5.41311 11.8334 5.24354 11.8334 5.06673V4.40006H13.1667C13.3435 4.40006 13.5131 4.4703 13.6381 4.59533C13.7631 4.72035 13.8334 4.88992 13.8334 5.06673V7.06673Z" fill="#8F9098"/>
</svg>
