<svg width="23" height="20" viewBox="0 0 23 20" fill="none" xmlns="http://www.w3.org/2000/svg">
<mask id="path-1-inside-1_1554_12386" fill="white">
<path d="M0.937988 4C0.937988 1.79086 2.72885 0 4.93799 0H18.938C21.1471 0 22.938 1.79086 22.938 4V16C22.938 18.2091 21.1471 20 18.938 20H1.93799C1.3857 20 0.937988 19.5523 0.937988 19V4Z"/>
</mask>
<path d="M0.937988 4C0.937988 1.79086 2.72885 0 4.93799 0H18.938C21.1471 0 22.938 1.79086 22.938 4V16C22.938 18.2091 21.1471 20 18.938 20H1.93799C1.3857 20 0.937988 19.5523 0.937988 19V4Z" stroke="#3454D1" stroke-width="4" mask="url(#path-1-inside-1_1554_12386)"/>
<rect x="5.93799" y="9" width="12" height="2" rx="1" fill="#3454D1"/>
<rect x="5.93799" y="5" width="12" height="2" rx="1" fill="#3454D1"/>
<rect x="5.93799" y="13" width="12" height="2" rx="1" fill="#3454D1"/>
</svg>
