<svg width="20" height="20" viewBox="0 0 20 20" fill="none" xmlns="http://www.w3.org/2000/svg">
<g clip-path="url(#clip0_2558_35450)">
<path d="M8.53583 13.595L5 10.0583L6.17833 8.87996L8.53583 11.2366L13.2492 6.52246L14.4283 7.70163L8.53583 13.5933V13.595Z" fill="#71727A"/>
<path fill-rule="evenodd" clip-rule="evenodd" d="M0.833496 10.0002C0.833496 4.93766 4.93766 0.833496 10.0002 0.833496C15.0627 0.833496 19.1668 4.93766 19.1668 10.0002C19.1668 15.0627 15.0627 19.1668 10.0002 19.1668C4.93766 19.1668 0.833496 15.0627 0.833496 10.0002ZM10.0002 17.5002C9.01525 17.5002 8.03998 17.3062 7.13004 16.9293C6.2201 16.5524 5.3933 15.9999 4.69686 15.3035C4.00042 14.607 3.44798 13.7802 3.07107 12.8703C2.69416 11.9603 2.50016 10.9851 2.50016 10.0002C2.50016 9.01525 2.69416 8.03998 3.07107 7.13004C3.44798 6.2201 4.00042 5.3933 4.69686 4.69686C5.3933 4.00042 6.2201 3.44798 7.13004 3.07107C8.03998 2.69416 9.01525 2.50016 10.0002 2.50016C11.9893 2.50016 13.8969 3.29034 15.3035 4.69686C16.71 6.10338 17.5002 8.01104 17.5002 10.0002C17.5002 11.9893 16.71 13.8969 15.3035 15.3035C13.8969 16.71 11.9893 17.5002 10.0002 17.5002Z" fill="#71727A"/>
</g>
<defs>
<clipPath id="clip0_2558_35450">
<rect width="20" height="20" fill="white"/>
</clipPath>
</defs>
</svg>
