<svg width="12" height="12" viewBox="0 0 12 12" fill="none" xmlns="http://www.w3.org/2000/svg">
<g clip-path="url(#clip0_1388_8314)">
<mask id="mask0_1388_8314" style="mask-type:alpha" maskUnits="userSpaceOnUse" x="0" y="0" width="12" height="12">
<ellipse cx="6" cy="5.99991" rx="5.5" ry="5.49991" fill="#D9D9D9"/>
</mask>
<g mask="url(#mask0_1388_8314)">
<rect width="12" height="11.9998" fill="#8F9098"/>
</g>
<path d="M4.66749 3.91065C4.45849 3.70166 4.11965 3.70166 3.91065 3.91065C3.70166 4.11964 3.70166 4.45848 3.91065 4.66747L5.24321 6.00001L3.91065 7.33256C3.70166 7.54155 3.70166 7.88039 3.91065 8.08938C4.11965 8.29837 4.45849 8.29837 4.66749 8.08938L6.00005 6.75684L7.33261 8.08938C7.54161 8.29837 7.88045 8.29837 8.08945 8.08938C8.29844 7.88039 8.29844 7.54155 8.08945 7.33256L6.75688 6.00001L8.08945 4.66747C8.29844 4.45848 8.29844 4.11964 8.08945 3.91065C7.88045 3.70166 7.54161 3.70166 7.33261 3.91065L6.00005 5.24319L4.66749 3.91065Z" fill="white"/>
</g>
<defs>
<clipPath id="clip0_1388_8314">
<rect width="12" height="11.9998" fill="white"/>
</clipPath>
</defs>
</svg>
