<svg width="20" height="20" viewBox="0 0 20 20" fill="none" xmlns="http://www.w3.org/2000/svg">
<g clip-path="url(#clip0_3165_14012)">
<path d="M10 5C10.1658 5 10.3247 5.06585 10.4419 5.18306C10.5592 5.30027 10.625 5.45924 10.625 5.625V7.5C10.625 7.66576 10.5592 7.82473 10.4419 7.94194C10.3247 8.05915 10.1658 8.125 10 8.125C9.83424 8.125 9.67527 8.05915 9.55806 7.94194C9.44085 7.82473 9.375 7.66576 9.375 7.5V5.625C9.375 5.45924 9.44085 5.30027 9.55806 5.18306C9.67527 5.06585 9.83424 5 10 5ZM4.665 7.165C4.7822 7.04783 4.94115 6.98201 5.10687 6.98201C5.2726 6.98201 5.43155 7.04783 5.54875 7.165L6.6925 8.3075C6.75061 8.36561 6.79671 8.4346 6.82815 8.51052C6.8596 8.58644 6.87579 8.66782 6.87579 8.75C6.87579 8.83218 6.8596 8.91356 6.82815 8.98948C6.79671 9.0654 6.75061 9.13439 6.6925 9.1925C6.63439 9.25061 6.5654 9.29671 6.48948 9.32815C6.41356 9.3596 6.33218 9.37579 6.25 9.37579C6.16782 9.37579 6.08644 9.3596 6.01052 9.32815C5.9346 9.29671 5.86561 9.25061 5.8075 9.1925L4.665 8.04875C4.54783 7.93155 4.48201 7.7726 4.48201 7.60687C4.48201 7.44115 4.54783 7.2822 4.665 7.165ZM2.5 12.5C2.5 12.3342 2.56585 12.1753 2.68306 12.0581C2.80027 11.9408 2.95924 11.875 3.125 11.875H5.1075C5.27326 11.875 5.43223 11.9408 5.54944 12.0581C5.66665 12.1753 5.7325 12.3342 5.7325 12.5C5.7325 12.6658 5.66665 12.8247 5.54944 12.9419C5.43223 13.0592 5.27326 13.125 5.1075 13.125H3.125C2.95924 13.125 2.80027 13.0592 2.68306 12.9419C2.56585 12.8247 2.5 12.6658 2.5 12.5ZM14.375 12.5C14.375 12.3342 14.4408 12.1753 14.5581 12.0581C14.6753 11.9408 14.8342 11.875 15 11.875H16.875C17.0408 11.875 17.1997 11.9408 17.3169 12.0581C17.4342 12.1753 17.5 12.3342 17.5 12.5C17.5 12.6658 17.4342 12.8247 17.3169 12.9419C17.1997 13.0592 17.0408 13.125 16.875 13.125H15C14.8342 13.125 14.6753 13.0592 14.5581 12.9419C14.4408 12.8247 14.375 12.6658 14.375 12.5ZM15.3175 7.1925C15.2309 7.10636 15.1151 7.05596 14.993 7.05133C14.871 7.04669 14.7516 7.08817 14.6588 7.1675L9.43375 11.6375C9.31201 11.7401 9.21316 11.8671 9.14358 12.0102C9.07401 12.1534 9.03526 12.3096 9.02984 12.4687C9.02442 12.6278 9.05246 12.7863 9.11214 12.9338C9.17182 13.0814 9.26181 13.2148 9.37629 13.3254C9.49077 13.436 9.62719 13.5214 9.77674 13.576C9.92628 13.6305 10.0856 13.6531 10.2444 13.6422C10.4032 13.6314 10.558 13.5873 10.6987 13.5128C10.8394 13.4384 10.9629 13.3352 11.0612 13.21L15.3538 7.83875C15.4284 7.74527 15.466 7.62754 15.4593 7.50807C15.4526 7.38861 15.4021 7.27581 15.3175 7.19125V7.1925Z" fill="#000"/>
<path fill-rule="evenodd" clip-rule="evenodd" d="M6.63479e-06 12.5001C0.00131335 11.0448 0.320223 9.60738 0.934472 8.28812C1.54872 6.96885 2.44351 5.79955 3.55636 4.86184C4.66922 3.92413 5.97333 3.24061 7.37765 2.85899C8.78197 2.47738 10.2527 2.40686 11.6871 2.65237C13.1214 2.89788 14.485 3.45349 15.6824 4.28043C16.8799 5.10736 17.8825 6.18569 18.6201 7.44013C19.3578 8.69457 19.8127 10.0949 19.9533 11.5433C20.0938 12.9918 19.9165 14.4535 19.4338 15.8263C18.8813 17.3926 17.1275 17.8288 15.7688 17.3888C14.1363 16.8601 11.8438 16.2501 10 16.2501C8.15751 16.2501 5.86251 16.8601 4.23126 17.3888C2.87251 17.8288 1.11876 17.3926 0.566257 15.8263C0.190184 14.7577 -0.00129928 13.6329 6.63479e-06 12.5001ZM10 3.75005C8.60047 3.74969 7.22127 4.08505 5.97815 4.72797C4.73502 5.37089 3.66426 6.30263 2.85571 7.44497C2.04717 8.58732 1.52444 9.90695 1.33139 11.2931C1.13834 12.6793 1.28061 14.0915 1.74626 15.4113C2.00001 16.1301 2.90001 16.5063 3.84626 16.1988C5.49626 15.6663 7.94751 15.0001 10 15.0001C12.0525 15.0001 14.505 15.6651 16.1538 16.2001C17.1 16.5063 18 16.1301 18.2538 15.4113C18.7194 14.0915 18.8617 12.6793 18.6686 11.2931C18.4756 9.90695 17.9528 8.58732 17.1443 7.44497C16.3358 6.30263 15.265 5.37089 14.0219 4.72797C12.7787 4.08505 11.3995 3.74969 10 3.75005Z" fill="#000"/>
</g>
<defs>
<clipPath id="clip0_3165_14012">
<rect width="20" height="20" fill="white"/>
</clipPath>
</defs>
</svg>
