<svg width="21" height="20" viewBox="0 0 21 20" fill="none" xmlns="http://www.w3.org/2000/svg">
<path d="M13.8326 7.08317H15.4993C15.4993 4.719 13.2034 3.64067 11.3326 3.39234V1.6665H9.66593V3.39234C7.7951 3.64067 5.49927 4.719 5.49927 7.08317C5.49927 9.33817 7.72093 10.5107 9.66593 10.7748V14.9165C8.45927 14.7073 7.16593 14.0632 7.16593 12.9165H5.49927C5.49927 15.074 7.5201 16.349 9.66593 16.6132V18.3332H11.3326V16.6082C13.2034 16.3598 15.4993 15.2807 15.4993 12.9165C15.4993 10.5523 13.2034 9.474 11.3326 9.22567V5.08317C12.4409 5.28234 13.8326 5.86734 13.8326 7.08317ZM7.16593 7.08317C7.16593 5.86734 8.5576 5.28234 9.66593 5.08317V9.08234C8.52343 8.8715 7.16593 8.24734 7.16593 7.08317ZM13.8326 12.9165C13.8326 14.1323 12.4409 14.7173 11.3326 14.9165V10.9165C12.4409 11.1157 13.8326 11.7007 13.8326 12.9165Z" fill="#000"/>
</svg>
