<svg width="21" height="20" viewBox="0 0 21 20" fill="none" xmlns="http://www.w3.org/2000/svg">
<path d="M6.33325 14.1773L10.0108 14.1648L18.0374 6.21484C18.3524 5.89984 18.5258 5.4815 18.5258 5.0365C18.5258 4.5915 18.3524 4.17317 18.0374 3.85817L16.7158 2.5365C16.0858 1.9065 14.9866 1.90984 14.3616 2.534L6.33325 10.4857V14.1773ZM15.5374 3.71484L16.8616 5.034L15.5308 6.35234L14.2091 5.0315L15.5374 3.71484ZM7.99992 11.1807L13.0249 6.20317L14.3466 7.52484L9.32242 12.5007L7.99992 12.5048V11.1807Z" fill="#000"/>
<path d="M4.66667 17.5H16.3333C17.2525 17.5 18 16.7525 18 15.8333V8.61L16.3333 10.2767V15.8333H7.29833C7.27667 15.8333 7.25417 15.8417 7.2325 15.8417C7.205 15.8417 7.1775 15.8342 7.14917 15.8333H4.66667V4.16667H10.3725L12.0392 2.5H4.66667C3.7475 2.5 3 3.2475 3 4.16667V15.8333C3 16.7525 3.7475 17.5 4.66667 17.5Z" fill="#000"/>
</svg>
