<svg width="12" height="12" viewBox="0 0 12 12" fill="none" xmlns="http://www.w3.org/2000/svg">
<path d="M3.90901 9.9287L8.56821 5.26951L6.35518 3.05647L1.69598 7.71567C1.63184 7.7799 1.58627 7.86028 1.56412 7.94831L1.04771 10.577L3.67588 10.0606C3.76412 10.0385 3.84484 9.99288 3.90901 9.9287ZM10.0723 3.76541C10.2603 3.57737 10.3659 3.32236 10.3659 3.05647C10.3659 2.79059 10.2603 2.53558 10.0723 2.34754L9.27714 1.55238C9.0891 1.36439 8.8341 1.25879 8.56821 1.25879C8.30232 1.25879 8.04732 1.36439 7.85928 1.55238L7.06411 2.34754L9.27714 4.56057L10.0723 3.76541Z" fill="#000"/>
</svg>
