<svg width="21" height="20" viewBox="0 0 21 20" fill="none" xmlns="http://www.w3.org/2000/svg">
<path d="M3.83342 16.6666C3.37508 16.6666 2.98258 16.5033 2.65592 16.1766C2.32925 15.8499 2.16619 15.4577 2.16675 14.9999V4.99992C2.16675 4.54159 2.33008 4.14909 2.65675 3.82242C2.98342 3.49575 3.37564 3.3327 3.83342 3.33325H17.1667C17.6251 3.33325 18.0176 3.49659 18.3442 3.82325C18.6709 4.14992 18.834 4.54214 18.8334 4.99992V14.9999C18.8334 15.4583 18.6701 15.8508 18.3434 16.1774C18.0167 16.5041 17.6245 16.6671 17.1667 16.6666H3.83342ZM10.5001 10.8333L3.83342 6.66659V14.9999H17.1667V6.66659L10.5001 10.8333ZM10.5001 9.16659L17.1667 4.99992H3.83342L10.5001 9.16659ZM3.83342 6.66659V4.99992V14.9999V6.66659Z" fill="#000"/>
</svg>
