<svg width="93" height="92" viewBox="0 0 93 92" fill="none" xmlns="http://www.w3.org/2000/svg">
<path fill-rule="evenodd" clip-rule="evenodd" d="M46.5 7.7124H23.5963C20.5591 7.7124 17.6462 8.91894 15.4986 11.0666C13.3509 13.2142 12.1444 16.1271 12.1444 19.1643V72.6064C12.1444 75.6436 13.3509 78.5564 15.4986 80.7041C17.6462 82.8517 20.5591 84.0582 23.5963 84.0582H69.4038C72.441 84.0582 75.3538 82.8517 77.5015 80.7041C79.6491 78.5564 80.8557 75.6436 80.8557 72.6064V42.068H57.9519C54.9147 42.068 52.0018 40.8615 49.8542 38.7138C47.7066 36.5662 46.5 33.6534 46.5 30.6161V7.7124ZM80.8557 34.4334V33.7769C80.854 30.7412 79.6471 27.8304 77.5003 25.6842L62.8877 11.064C60.7399 8.91759 57.8276 7.71204 54.7912 7.7124H54.1346V30.6161C54.1346 31.6286 54.5368 32.5995 55.2527 33.3154C55.9686 34.0313 56.9395 34.4334 57.9519 34.4334H80.8557Z" fill="#000"/>
</svg>
