<svg width="20" height="20" viewBox="0 0 20 20" fill="none" xmlns="http://www.w3.org/2000/svg">
<path d="M7.50016 10.8334H12.5002M7.50016 14.1667H10.0002M3.3335 3.33341V16.6667C3.3335 17.1088 3.50909 17.5327 3.82165 17.8453C4.13421 18.1578 4.55814 18.3334 5.00016 18.3334H15.0002C15.4422 18.3334 15.8661 18.1578 16.1787 17.8453C16.4912 17.5327 16.6668 17.1088 16.6668 16.6667V6.95175C16.6668 6.72971 16.6224 6.50992 16.5363 6.30528C16.4501 6.10065 16.3239 5.91528 16.1652 5.76008L12.4652 2.14175C12.1538 1.8373 11.7356 1.6668 11.3002 1.66675H5.00016C4.55814 1.66675 4.13421 1.84234 3.82165 2.1549C3.50909 2.46746 3.3335 2.89139 3.3335 3.33341Z" stroke="#000" stroke-width="1.66667" stroke-linecap="round" stroke-linejoin="round"/>
<path d="M11.667 1.66675V5.00008C11.667 5.44211 11.8426 5.86603 12.1551 6.17859C12.4677 6.49115 12.8916 6.66675 13.3337 6.66675H16.667" stroke="#000" stroke-width="1.66667" stroke-linejoin="round"/>
</svg>
