<svg width="40" height="40" viewBox="0 0 40 40" fill="none" xmlns="http://www.w3.org/2000/svg">
<path fill-rule="evenodd" clip-rule="evenodd" d="M23.3333 36.6663H16.6667C10.3817 36.6663 7.23834 36.6663 5.28668 34.713C3.33334 32.7613 3.33334 29.618 3.33334 23.333V16.6663C3.33334 10.3813 3.33334 7.23801 5.28668 5.28634C7.23834 3.33301 10.3983 3.33301 16.7167 3.33301C17.7267 3.33301 18.535 3.33301 19.2167 3.36134C19.195 3.49467 19.1833 3.62967 19.1833 3.76801L19.1667 8.49134C19.1667 10.3197 19.1667 11.9363 19.3417 13.238C19.5317 14.6497 19.9667 16.0613 21.12 17.2147C22.27 18.3647 23.6833 18.8013 25.095 18.9913C26.3967 19.1663 28.0133 19.1663 29.8417 19.1663H36.595C36.6667 20.0563 36.6667 21.1497 36.6667 22.6047V23.333C36.6667 29.618 36.6667 32.7613 34.7133 34.713C32.7617 36.6663 29.6183 36.6663 23.3333 36.6663Z" fill="#B4DBFF"/>
<path d="M32.2534 12.6937L25.6534 6.75539C23.775 5.06372 22.8367 4.21706 21.6817 3.77539L21.6667 8.33206C21.6667 12.2604 21.6667 14.2254 22.8867 15.4454C24.1067 16.6654 26.0717 16.6654 30 16.6654H35.9667C35.3634 15.4921 34.28 14.5187 32.2534 12.6937Z" fill="#B4DBFF"/>
</svg>
