<svg width="17" height="16" viewBox="0 0 17 16" fill="none" xmlns="http://www.w3.org/2000/svg">
<g clip-path="url(#clip0_2693_12924)">
<path d="M8.83333 1.33301L8.91133 1.33767C9.06014 1.35522 9.1987 1.42239 9.30466 1.52835C9.41061 1.6343 9.47778 1.77286 9.49533 1.92167L9.5 1.99967V4.66634L9.50333 4.76634C9.52719 5.08379 9.66384 5.38223 9.88857 5.60769C10.1133 5.83316 10.4113 5.97078 10.7287 5.99568L10.8333 5.99967H13.5L13.578 6.00434C13.7268 6.02189 13.8654 6.08906 13.9713 6.19502C14.0773 6.30097 14.1445 6.43953 14.162 6.58834L14.1667 6.66634V12.6663C14.1667 13.1765 13.9718 13.6674 13.6218 14.0385C13.2718 14.4097 12.7933 14.6331 12.284 14.663L12.1667 14.6663H5.5C4.98986 14.6664 4.49899 14.4715 4.12783 14.1215C3.75666 13.7715 3.53326 13.2929 3.50333 12.7837L3.5 12.6663V3.33301C3.49997 2.82287 3.69488 2.332 4.04486 1.96083C4.39483 1.58967 4.8734 1.36627 5.38267 1.33634L5.5 1.33301H8.83333Z" fill="#000"/>
<path d="M13.5 4.66684H10.8333L10.8326 1.99951L13.5 4.66684Z" fill="#000"/>
</g>
<defs>
<clipPath id="clip0_2693_12924">
<rect width="16" height="16" fill="white" transform="translate(0.833313)"/>
</clipPath>
</defs>
</svg>
