<svg width="20" height="20" viewBox="0 0 20 20" fill="none" xmlns="http://www.w3.org/2000/svg">
<path d="M11.6667 2.5V5.83333C11.6667 6.05435 11.7545 6.26631 11.9107 6.42259C12.067 6.57887 12.279 6.66667 12.5 6.66667H15.8333" stroke="#000" stroke-width="1.66667" stroke-linecap="round" stroke-linejoin="round"/>
<path d="M7.50001 7.5H8.33335M7.50001 10.8333H12.5M7.50001 14.1667H12.5M14.1667 17.5H5.83335C5.39132 17.5 4.9674 17.3244 4.65483 17.0118C4.34227 16.6993 4.16668 16.2754 4.16668 15.8333V4.16667C4.16668 3.72464 4.34227 3.30072 4.65483 2.98816C4.9674 2.67559 5.39132 2.5 5.83335 2.5H11.6667L15.8333 6.66667V15.8333C15.8333 16.2754 15.6578 16.6993 15.3452 17.0118C15.0326 17.3244 14.6087 17.5 14.1667 17.5Z" stroke="#000" stroke-width="1.66667" stroke-linecap="round" stroke-linejoin="round"/>
</svg>
