<svg width="21" height="20" viewBox="0 0 21 20" fill="none" xmlns="http://www.w3.org/2000/svg">
<path fill-rule="evenodd" clip-rule="evenodd" d="M2.1665 3.75C2.1665 3.41848 2.29193 3.10054 2.51519 2.86612C2.73844 2.6317 3.04125 2.5 3.35698 2.5H17.6427C17.9584 2.5 18.2612 2.6317 18.4845 2.86612C18.7077 3.10054 18.8332 3.41848 18.8332 3.75C18.8332 4.08152 18.7077 4.39946 18.4845 4.63388C18.2612 4.8683 17.9584 5 17.6427 5H3.35698C3.04125 5 2.73844 4.8683 2.51519 4.63388C2.29193 4.39946 2.1665 4.08152 2.1665 3.75ZM4.78977 10C4.78977 9.66848 4.9152 9.35054 5.13846 9.11612C5.36171 8.8817 5.66452 8.75 5.98025 8.75H15.0773C15.393 8.75 15.6958 8.8817 15.9191 9.11612C16.1424 9.35054 16.2678 9.66848 16.2678 10C16.2678 10.3315 16.1424 10.6495 15.9191 10.8839C15.6958 11.1183 15.393 11.25 15.0773 11.25H5.98025C5.66452 11.25 5.36171 11.1183 5.13846 10.8839C4.9152 10.6495 4.78977 10.3315 4.78977 10ZM7.84954 16.4153C7.84954 16.0838 7.97496 15.7658 8.19822 15.5314C8.42148 15.297 8.72428 15.1653 9.04002 15.1653H12.0199C12.3356 15.1653 12.6384 15.297 12.8617 15.5314C13.0849 15.7658 13.2104 16.0838 13.2104 16.4153C13.2104 16.7468 13.0849 17.0647 12.8617 17.2992C12.6384 17.5336 12.3356 17.6653 12.0199 17.6653H9.04002C8.72428 17.6653 8.42148 17.5336 8.19822 17.2992C7.97496 17.0647 7.84954 16.7468 7.84954 16.4153Z" fill="#000"/>
</svg>
