<svg width="20" height="20" viewBox="0 0 20 20" fill="none" xmlns="http://www.w3.org/2000/svg">
<path d="M18.8058 8.28118C18.9203 8.89484 18.9827 9.53643 18.9827 10.206C18.9827 15.443 15.4777 19.1668 10.1839 19.1668C8.97999 19.1672 7.78783 18.9303 6.67551 18.4698C5.5632 18.0093 4.55252 17.3341 3.70125 16.4828C2.84997 15.6315 2.17477 14.6208 1.71424 13.5085C1.2537 12.3962 1.01685 11.204 1.01721 10.0002C1.01685 8.79628 1.2537 7.60411 1.71424 6.4918C2.17477 5.37948 2.84997 4.36881 3.70125 3.51753C4.55252 2.66626 5.5632 1.99106 6.67551 1.53052C7.78783 1.06998 8.97999 0.833129 10.1839 0.833497C12.659 0.833497 14.7272 1.7442 16.3139 3.22294L13.7299 5.807V5.80048C12.7679 4.88419 11.5471 4.41393 10.1839 4.41393C7.15936 4.41393 4.70101 6.96913 4.70101 9.99458C4.70101 13.0191 7.15936 15.5799 10.1839 15.5799C12.9281 15.5799 14.7961 14.0108 15.1797 11.856H10.1839V8.28118H18.8067H18.8058Z" fill="#000"/>
</svg>
