<svg width="17" height="16" viewBox="0 0 17 16" fill="none" xmlns="http://www.w3.org/2000/svg">
<path d="M3.16667 1.3335C2.45942 1.3335 1.78115 1.61445 1.28105 2.11454C0.780951 2.61464 0.5 3.29292 0.5 4.00016V4.26816L8.5 8.57616L16.5 4.2695V4.00016C16.5 3.29292 16.219 2.61464 15.719 2.11454C15.2189 1.61445 14.5406 1.3335 13.8333 1.3335H3.16667ZM16.5 5.78283L8.816 9.92016C8.71888 9.97244 8.6103 9.99981 8.5 9.99981C8.3897 9.99981 8.28112 9.97244 8.184 9.92016L0.5 5.78283V12.0002C0.5 12.7074 0.780951 13.3857 1.28105 13.8858C1.78115 14.3859 2.45942 14.6668 3.16667 14.6668H13.8333C14.5406 14.6668 15.2189 14.3859 15.719 13.8858C16.219 13.3857 16.5 12.7074 16.5 12.0002V5.78283Z" fill="#000"/>
</svg>
