<svg width="20" height="20" viewBox="0 0 20 20" fill="none" xmlns="http://www.w3.org/2000/svg">
<path d="M3 2.96875C3 1.882 3.90462 1 5.01923 1H12.6185C13.1538 1 13.6673 1.207 14.0458 1.57713L17.4081 4.85538C17.7877 5.22438 18 5.725 18 6.247V17.0312C18 17.5534 17.7873 18.0542 17.4086 18.4234C17.0299 18.7926 16.5163 19 15.9808 19H5.01923C4.4837 19 3.9701 18.7926 3.59142 18.4234C3.21274 18.0542 3 17.5534 3 17.0312V2.96875ZM5.01923 2.6875C4.94273 2.6875 4.86935 2.71713 4.81526 2.76988C4.76116 2.82262 4.73077 2.89416 4.73077 2.96875V17.0312C4.73077 17.1865 4.86 17.3125 5.01923 17.3125H15.9808C16.0573 17.3125 16.1306 17.2829 16.1847 17.2301C16.2388 17.1774 16.2692 17.1058 16.2692 17.0312V7.75H13.0962C12.5606 7.75 12.047 7.54258 11.6683 7.17337C11.2897 6.80415 11.0769 6.30339 11.0769 5.78125V2.6875H5.01923ZM12.8077 2.75725V5.78125C12.8077 5.9365 12.9369 6.0625 13.0962 6.0625H16.1977L16.185 6.04787L12.8227 2.76962L12.8077 2.75725Z" fill="#000"/>
</svg>
