<svg width="333" height="248" viewBox="0 0 333 248" fill="none" xmlns="http://www.w3.org/2000/svg">
<g opacity="0.917411" clip-path="url(#clip0_1134_8533)">
<mask id="mask0_1134_8533" style="mask-type:luminance" maskUnits="userSpaceOnUse" x="0" y="217" width="333" height="1">
<path fill-rule="evenodd" clip-rule="evenodd" d="M0.477695 217.218H332.522V217.882H0.477695V217.218Z" fill="white"/>
</mask>
<g mask="url(#mask0_1134_8533)">
<path fill-rule="evenodd" clip-rule="evenodd" d="M0.477695 217.633H332.522V217.467H0.477695V217.633Z" fill="#E4E4DE"/>
</g>
<path fill-rule="evenodd" clip-rule="evenodd" d="M264.121 228.258H299.318V228.092H264.121V228.258Z" fill="#E4E4DE"/>
<path fill-rule="evenodd" clip-rule="evenodd" d="M181.774 226.266H220.955V226.1H181.774V226.266Z" fill="#E4E4DE"/>
<path fill-rule="evenodd" clip-rule="evenodd" d="M252.832 225.602H265.449V225.436H252.832V225.602Z" fill="#E4E4DE"/>
<path fill-rule="evenodd" clip-rule="evenodd" d="M66.8866 223.61H95.4425V223.444H66.8866V223.61Z" fill="#D0D9E6"/>
<path fill-rule="evenodd" clip-rule="evenodd" d="M52.9408 223.61H62.9021V223.444H52.9408V223.61Z" fill="#D0D9E6"/>
<path fill-rule="evenodd" clip-rule="evenodd" d="M87.4734 226.266H123.334V226.1H87.4734V226.266Z" fill="#D0D9E6"/>
<path fill-rule="evenodd" clip-rule="evenodd" d="M29.5037 0.22656C27.5048 0.22656 25.8791 1.85292 25.8791 3.85116V184.106C25.8791 186.104 27.5048 187.73 29.5037 187.73H157.739C159.736 187.73 161.363 186.104 161.363 184.106V3.85116C161.363 1.85292 159.736 0.22656 157.739 0.22656H29.5037ZM157.739 187.896H29.5037C27.4132 187.896 25.7131 186.196 25.7131 184.106V3.85117C25.7131 1.76128 27.4132 0.0605469 29.5037 0.0605469H157.739C159.828 0.0605469 161.529 1.76128 161.529 3.85117V184.106C161.529 186.196 159.828 187.896 157.739 187.896Z" fill="#D0D9E6"/>
<path fill-rule="evenodd" clip-rule="evenodd" d="M173.61 0.22656C171.612 0.22656 169.986 1.85292 169.986 3.85116V184.106C169.986 186.104 171.612 187.73 173.61 187.73H301.845C303.844 187.73 305.47 186.104 305.47 184.106V3.85116C305.47 1.85292 303.844 0.22656 301.845 0.22656H173.61ZM301.845 187.896H173.61C171.521 187.896 169.82 186.196 169.82 184.106V3.85117C169.82 1.76128 171.521 0.0605469 173.61 0.0605469H301.845C303.935 0.0605469 305.636 1.76128 305.636 3.85117V184.106C305.636 186.196 303.935 187.896 301.845 187.896Z" fill="#D0D9E6"/>
<path fill-rule="evenodd" clip-rule="evenodd" d="M78.7558 177.372H38.4152C36.5424 177.372 35.0103 175.897 35.0103 174.094V172.682C35.0103 170.878 36.5424 169.403 38.4152 169.403H78.7558C80.628 169.403 82.1607 170.878 82.1607 172.682V174.094C82.1607 175.897 80.628 177.372 78.7558 177.372Z" fill="#E3ECFA"/>
<path fill-rule="evenodd" clip-rule="evenodd" d="M47.628 177.372H41.1035L33.6822 217.218H40.2067L47.628 177.372Z" fill="#DAE2F0"/>
<path fill-rule="evenodd" clip-rule="evenodd" d="M61.5739 177.372H54.7643L50.9485 217.218H57.7581L61.5739 177.372Z" fill="#DAE2F0"/>
<path fill-rule="evenodd" clip-rule="evenodd" d="M68.8789 177.372H75.4038L82.8248 217.218H76.3005L68.8789 177.372Z" fill="#DAE2F0"/>
<path fill-rule="evenodd" clip-rule="evenodd" d="M131.303 146.16H286.7V10.686H131.303V146.16Z" fill="#DAE2F0"/>
<path fill-rule="evenodd" clip-rule="evenodd" d="M133.296 146.16H290.685V10.686H133.296V146.16Z" fill="#E3ECFA"/>
<path fill-rule="evenodd" clip-rule="evenodd" d="M131.303 148.152H286.7V145.496H131.303V148.152Z" fill="#DDDED8"/>
<path fill-rule="evenodd" clip-rule="evenodd" d="M135.952 148.152H293.341V145.496H135.952V148.152Z" fill="#DAE2F0"/>
<path fill-rule="evenodd" clip-rule="evenodd" d="M139.936 141.512H284.708V14.6705H139.936V141.512Z" fill="#FCFEFF"/>
<path fill-rule="evenodd" clip-rule="evenodd" d="M186.423 141.512L213.587 14.6705H231.581L204.417 141.512H186.423Z" fill="#FFFFFE"/>
<path fill-rule="evenodd" clip-rule="evenodd" d="M165.172 141.512L192.335 14.6705H210.33L183.166 141.512H165.172Z" fill="#FFFFFE"/>
<path fill-rule="evenodd" clip-rule="evenodd" d="M143.257 15.0131V133.2C143.257 133.389 143.525 133.542 143.857 133.542H144.65C144.981 133.542 145.249 133.389 145.249 133.2V15.0131C145.249 14.8236 144.981 14.6705 144.65 14.6705H143.857C143.525 14.6705 143.257 14.8236 143.257 15.0131Z" fill="#EAEAE5"/>
<path fill-rule="evenodd" clip-rule="evenodd" d="M232.909 141.512L260.353 14.6705H267.442L239.997 141.512H232.909Z" fill="#FFFFFE"/>
<path fill-rule="evenodd" clip-rule="evenodd" d="M284.044 141.512H284.708V14.6705H284.044V141.512Z" fill="#DAE2F0"/>
<path fill-rule="evenodd" clip-rule="evenodd" d="M292.677 19.3191H291.349V15.9987H292.16L292.677 19.3191Z" fill="#E3ECFA"/>
<path fill-rule="evenodd" clip-rule="evenodd" d="M284.708 19.3191H291.349V15.9987H284.708V19.3191Z" fill="#DAE2F0"/>
<path fill-rule="evenodd" clip-rule="evenodd" d="M284.031 19.6253H266.08L266.859 15.9987H284.031V19.6253ZM259.04 19.6253H251.68L251.503 15.9987H259.819L259.04 19.6253Z" fill="#E3ECFA"/>
<path fill-rule="evenodd" clip-rule="evenodd" d="M265.983 19.3191H258.808L259.603 15.9987H266.777L265.983 19.3191Z" fill="#EBF3FF"/>
<path fill-rule="evenodd" clip-rule="evenodd" d="M284.044 19.3191H284.708V15.9987H284.044V19.3191Z" fill="#CCD3E0"/>
<path fill-rule="evenodd" clip-rule="evenodd" d="M292.677 31.9368H291.349V28.6164H292.16L292.677 31.9368Z" fill="#E3ECFA"/>
<path fill-rule="evenodd" clip-rule="evenodd" d="M284.708 31.9368H291.349V28.6164H284.708V31.9368Z" fill="#DAE2F0"/>
<path fill-rule="evenodd" clip-rule="evenodd" d="M284.09 32.243H263.462L264.242 28.6164H284.09V32.243ZM256.423 32.243H252.344L252.168 28.6164H257.203L256.423 32.243Z" fill="#E3ECFA"/>
<path fill-rule="evenodd" clip-rule="evenodd" d="M263.327 31.9368H256.152L256.947 28.6164H264.121L263.327 31.9368Z" fill="#EBF3FF"/>
<path fill-rule="evenodd" clip-rule="evenodd" d="M284.044 31.9368H284.708V28.6164H284.044V31.9368Z" fill="#CCD3E0"/>
<path fill-rule="evenodd" clip-rule="evenodd" d="M292.677 44.5545H291.349V41.2341H292.16L292.677 44.5545Z" fill="#E3ECFA"/>
<path fill-rule="evenodd" clip-rule="evenodd" d="M284.708 44.5545H291.349V41.2341H284.708V44.5545Z" fill="#DAE2F0"/>
<path fill-rule="evenodd" clip-rule="evenodd" d="M284.147 44.8607H260.845L261.625 41.2341H284.147V44.8607ZM253.805 44.8607H253.008L252.832 41.2341H254.585L253.805 44.8607Z" fill="#E3ECFA"/>
<path fill-rule="evenodd" clip-rule="evenodd" d="M260.67 44.5545H253.496L254.291 41.2341H261.465L260.67 44.5545Z" fill="#EBF3FF"/>
<path fill-rule="evenodd" clip-rule="evenodd" d="M284.044 44.5545H284.708V41.2341H284.044V44.5545Z" fill="#CCD3E0"/>
<path fill-rule="evenodd" clip-rule="evenodd" d="M292.677 57.1722H291.349V53.8518H292.16L292.677 57.1722Z" fill="#E3ECFA"/>
<path fill-rule="evenodd" clip-rule="evenodd" d="M284.708 57.1722H291.349V53.8518H284.708V57.1722Z" fill="#DAE2F0"/>
<path fill-rule="evenodd" clip-rule="evenodd" d="M284.044 57.1722H258.144L258.922 53.8518H284.044V57.1722Z" fill="#E3ECFA"/>
<path fill-rule="evenodd" clip-rule="evenodd" d="M258.056 57.1722H253.666L253.496 53.8518H258.808L258.056 57.1722Z" fill="#EBF3FF"/>
<path fill-rule="evenodd" clip-rule="evenodd" d="M284.044 57.1722H284.708V53.8518H284.044V57.1722Z" fill="#CCD3E0"/>
<path fill-rule="evenodd" clip-rule="evenodd" d="M292.677 69.1258H291.349V65.8054H292.16L292.677 69.1258Z" fill="#E3ECFA"/>
<path fill-rule="evenodd" clip-rule="evenodd" d="M284.708 69.1258H291.349V65.8054H284.708V69.1258Z" fill="#DAE2F0"/>
<path fill-rule="evenodd" clip-rule="evenodd" d="M284.044 69.1258H255.488L256.265 65.8054H284.044V69.1258Z" fill="#E3ECFA"/>
<path fill-rule="evenodd" clip-rule="evenodd" d="M254.792 69.1258H253.653L253.496 65.8054H255.488L254.792 69.1258Z" fill="#EBF3FF"/>
<path fill-rule="evenodd" clip-rule="evenodd" d="M284.044 69.1258H284.708V65.8054H284.044V69.1258Z" fill="#CCD3E0"/>
<path fill-rule="evenodd" clip-rule="evenodd" d="M292.677 81.7435H291.349V78.4231H292.16L292.677 81.7435Z" fill="#E3ECFA"/>
<path fill-rule="evenodd" clip-rule="evenodd" d="M284.708 81.7435H291.349V78.4231H284.708V81.7435Z" fill="#DAE2F0"/>
<path fill-rule="evenodd" clip-rule="evenodd" d="M283.38 81.7435H255.564C255.234 81.2317 254.779 80.5435 254.231 79.769L254.16 78.4231H283.38V81.7435Z" fill="#E3ECFA"/>
<path fill-rule="evenodd" clip-rule="evenodd" d="M284.044 81.7435H284.708V78.4231H284.044V81.7435Z" fill="#CCD3E0"/>
<path fill-rule="evenodd" clip-rule="evenodd" d="M292.677 25.96H291.349V22.6396H292.16L292.677 25.96Z" fill="#E3ECFA"/>
<path fill-rule="evenodd" clip-rule="evenodd" d="M284.708 25.96H291.349V22.6396H284.708V25.96Z" fill="#DAE2F0"/>
<path fill-rule="evenodd" clip-rule="evenodd" d="M283.728 26.2662H264.439L265.219 22.6396H283.728V26.2662ZM257.399 26.2662H251.68L251.503 22.6396H258.179L257.399 26.2662Z" fill="#E3ECFA"/>
<path fill-rule="evenodd" clip-rule="evenodd" d="M264.655 25.96H257.48L258.275 22.6396H265.449L264.655 25.96Z" fill="#EBF3FF"/>
<path fill-rule="evenodd" clip-rule="evenodd" d="M284.044 25.96H284.708V22.6396H284.044V25.96Z" fill="#CCD3E0"/>
<path fill-rule="evenodd" clip-rule="evenodd" d="M292.677 38.5777H291.349V35.2573H292.16L292.677 38.5777Z" fill="#E3ECFA"/>
<path fill-rule="evenodd" clip-rule="evenodd" d="M284.708 38.5777H291.349V35.2573H284.708V38.5777Z" fill="#DAE2F0"/>
<path fill-rule="evenodd" clip-rule="evenodd" d="M283.786 38.8839H261.821L262.601 35.2573H283.786V38.8839ZM254.781 38.8839H252.344L252.168 35.2573H255.562L254.781 38.8839Z" fill="#E3ECFA"/>
<path fill-rule="evenodd" clip-rule="evenodd" d="M261.998 38.5777H254.824L255.619 35.2573H262.793L261.998 38.5777Z" fill="#EBF3FF"/>
<path fill-rule="evenodd" clip-rule="evenodd" d="M284.044 38.5777H284.708V35.2573H284.044V38.5777Z" fill="#CCD3E0"/>
<path fill-rule="evenodd" clip-rule="evenodd" d="M292.677 50.5313H291.349V47.2109H292.16L292.677 50.5313Z" fill="#E3ECFA"/>
<path fill-rule="evenodd" clip-rule="evenodd" d="M284.708 50.5313H291.349V47.2109H284.708V50.5313Z" fill="#DAE2F0"/>
<path fill-rule="evenodd" clip-rule="evenodd" d="M283.845 50.8375H259.205L259.985 47.2109H283.845V50.8375ZM252.852 47.6399L252.832 47.2109H252.944L252.852 47.6399Z" fill="#E3ECFA"/>
<path fill-rule="evenodd" clip-rule="evenodd" d="M259.338 50.5313H252.991L252.832 47.6037L252.926 47.2109H260.137L259.338 50.5313Z" fill="#EBF3FF"/>
<path fill-rule="evenodd" clip-rule="evenodd" d="M284.044 50.5313H284.708V47.2109H284.044V50.5313Z" fill="#CCD3E0"/>
<path fill-rule="evenodd" clip-rule="evenodd" d="M292.677 63.149H291.349V59.8286H292.16L292.677 63.149Z" fill="#E3ECFA"/>
<path fill-rule="evenodd" clip-rule="evenodd" d="M284.708 63.149H291.349V59.8286H284.708V63.149Z" fill="#DAE2F0"/>
<path fill-rule="evenodd" clip-rule="evenodd" d="M284.044 63.149H256.816L257.593 59.8286H284.044V63.149Z" fill="#E3ECFA"/>
<path fill-rule="evenodd" clip-rule="evenodd" d="M256.678 63.149H253.677L253.496 59.8286H257.48L256.678 63.149Z" fill="#EBF3FF"/>
<path fill-rule="evenodd" clip-rule="evenodd" d="M284.044 63.149H284.708V59.8286H284.044V63.149Z" fill="#CCD3E0"/>
<path fill-rule="evenodd" clip-rule="evenodd" d="M292.677 75.7667H291.349V72.4463H292.16L292.677 75.7667Z" fill="#E3ECFA"/>
<path fill-rule="evenodd" clip-rule="evenodd" d="M284.708 75.7667H291.349V72.4463H284.708V75.7667Z" fill="#DAE2F0"/>
<path fill-rule="evenodd" clip-rule="evenodd" d="M284.044 75.7667H254.228L254.16 74.498L254.645 72.4463H284.044V75.7667Z" fill="#E3ECFA"/>
<path fill-rule="evenodd" clip-rule="evenodd" d="M254.305 74.4385L254.196 72.4463H254.787L254.305 74.4385Z" fill="#E9E9E4"/>
<path fill-rule="evenodd" clip-rule="evenodd" d="M284.044 75.7667H284.708V72.4463H284.044V75.7667Z" fill="#CCD3E0"/>
<path fill-rule="evenodd" clip-rule="evenodd" d="M292.677 88.3844H291.349V85.064H292.16L292.677 88.3844Z" fill="#E3ECFA"/>
<path fill-rule="evenodd" clip-rule="evenodd" d="M284.708 88.3844H291.349V85.064H284.708V88.3844Z" fill="#DAE2F0"/>
<path fill-rule="evenodd" clip-rule="evenodd" d="M283.38 88.3844H257.508C257.254 87.9253 256.992 87.473 256.725 87.0249C256.333 86.3536 255.918 85.703 255.488 85.064H283.38V88.3844Z" fill="#E3ECFA"/>
<path fill-rule="evenodd" clip-rule="evenodd" d="M284.044 88.3844H284.708V85.064H284.044V88.3844Z" fill="#CCD3E0"/>
<path fill-rule="evenodd" clip-rule="evenodd" d="M266.113 217.882H286.7V156.122H266.113V217.882Z" fill="#DDDED8"/>
<path fill-rule="evenodd" clip-rule="evenodd" d="M274.057 217.882H286.7V210.577H260.801L274.057 217.882Z" fill="#E3ECFA"/>
<path fill-rule="evenodd" clip-rule="evenodd" d="M204.353 217.882H224.94V156.122H204.353V217.882Z" fill="#DAE2F0"/>
<path fill-rule="evenodd" clip-rule="evenodd" d="M214.314 216.554H286.7V156.122H214.314V216.554Z" fill="#E3ECFA"/>
<path fill-rule="evenodd" clip-rule="evenodd" d="M226.958 217.882H214.314V210.577H240.214L226.958 217.882Z" fill="#E3ECFA"/>
<path fill-rule="evenodd" clip-rule="evenodd" d="M223.612 193.975H276.739V162.762H223.612V193.975Z" fill="#FCFEFF"/>
<path fill-rule="evenodd" clip-rule="evenodd" d="M223.612 211.905H276.739V197.295H223.612V211.905Z" fill="#FCFEFF"/>
<path fill-rule="evenodd" clip-rule="evenodd" d="M254.687 164.091H245C243.457 164.091 242.206 162.902 242.206 161.434H257.48C257.48 162.902 256.229 164.091 254.687 164.091Z" fill="#E4E4DE"/>
<path fill-rule="evenodd" clip-rule="evenodd" d="M254.687 198.623H245C243.457 198.623 242.206 197.434 242.206 195.967H257.48C257.48 197.434 256.23 198.623 254.687 198.623Z" fill="#E3ECFA"/>
<path fill-rule="evenodd" clip-rule="evenodd" d="M187.751 217.882H208.338V156.122H187.751V217.882Z" fill="#E3ECFA"/>
<path fill-rule="evenodd" clip-rule="evenodd" d="M196.359 217.882H209.002V210.577H183.102L196.359 217.882Z" fill="#E3ECFA"/>
<path fill-rule="evenodd" clip-rule="evenodd" d="M126.655 217.882H147.241V156.122H126.655V217.882Z" fill="#DAE2F0"/>
<path fill-rule="evenodd" clip-rule="evenodd" d="M135.952 216.554H208.338V156.122H135.952V216.554Z" fill="#E3ECFA"/>
<path fill-rule="evenodd" clip-rule="evenodd" d="M148.596 217.882H135.952V210.577H161.851L148.596 217.882Z" fill="#E3ECFA"/>
<path fill-rule="evenodd" clip-rule="evenodd" d="M145.913 193.975H199.04V162.762H145.913V193.975Z" fill="#FCFEFF"/>
<path fill-rule="evenodd" clip-rule="evenodd" d="M145.913 211.905H199.04V197.295H145.913V211.905Z" fill="#FCFEFF"/>
<path fill-rule="evenodd" clip-rule="evenodd" d="M176.988 164.091H167.301C165.758 164.091 164.508 162.902 164.508 161.434H179.782C179.782 162.902 178.531 164.091 176.988 164.091Z" fill="#E4E4DE"/>
<path fill-rule="evenodd" clip-rule="evenodd" d="M176.988 198.623H167.301C165.758 198.623 164.508 197.434 164.508 195.967H179.782C179.782 197.434 178.531 198.623 176.988 198.623Z" fill="#E3ECFA"/>
<path fill-rule="evenodd" clip-rule="evenodd" d="M135.952 156.122H286.036V153.465H135.952V156.122Z" fill="#DAE2F0"/>
<path fill-rule="evenodd" clip-rule="evenodd" d="M126.655 156.122H136.616V153.465H126.655V156.122Z" fill="#D4D5CF"/>
<path fill-rule="evenodd" clip-rule="evenodd" d="M56.7119 159.921C55.7514 135.667 54.727 111.55 56.8243 99.3845L60.2457 97.0176C60.2457 97.0176 59.4958 99.2857 59.1027 136.446C58.8289 162.276 58.5095 160.872 58.4808 159.469C58.4679 158.853 58.5115 158.238 58.6389 159.921H56.7119Z" fill="#DDDED8"/>
<path fill-rule="evenodd" clip-rule="evenodd" d="M61.9241 73.5945C67.0346 60.1966 78.9417 47.259 91.8783 41.9669C96.957 39.8889 89.6394 85.5795 71.2254 88.5242C62.2329 89.9623 59.4333 113.119 57.9172 124.245C57.4028 102.362 56.8143 86.993 61.9241 73.5945Z" fill="#DDDED8"/>
<path fill-rule="evenodd" clip-rule="evenodd" d="M60.5407 107.38C64.1317 101.683 70.0035 93.7051 78.5815 93.6971C88.3051 93.6886 79.7959 109.711 68.3665 114.828C62.7852 117.327 58.1331 125.259 56.9253 130.222C57.0257 120.162 56.9491 113.077 60.5407 107.38Z" fill="#DDDED8"/>
<path fill-rule="evenodd" clip-rule="evenodd" d="M51.9502 90.5708C45.6881 79.4728 31.7309 68.3132 16.8714 63.236C11.0376 61.2423 10.4622 94.1159 41.9161 101.983C52.0747 104.523 56.1473 122.508 58.2535 131.55C58.078 113.988 58.2117 101.668 51.9502 90.5708Z" fill="#DAE2F0"/>
<path fill-rule="evenodd" clip-rule="evenodd" d="M55.9202 116.897C51.8909 109.846 40.9374 106.4 31.0869 107.058C27.2187 107.316 26.7962 121.788 48.3095 127.376C54.8347 129.07 57.4676 140.416 58.8225 146.16C58.7095 135.003 59.9495 123.948 55.9202 116.897Z" fill="#DAE2F0"/>
<path fill-rule="evenodd" clip-rule="evenodd" d="M55.688 79.1799C52.5698 69.2175 43.3786 60.2881 34.9428 56.597C31.6309 55.1479 30.6128 71.6683 48.7175 87.8412C54.2088 92.7473 55.9402 107.038 56.8353 114.284C57.2458 101.349 58.8063 89.1422 55.688 79.1799Z" fill="#DAE2F0"/>
<path fill-rule="evenodd" clip-rule="evenodd" d="M57.9214 169.403C51.2822 169.403 45.7953 168.919 45.4137 159.939L44.3076 148.152H71.5352L70.4292 159.939C70.0482 168.919 64.5613 169.403 57.9214 169.403Z" fill="#E3ECFA"/>
<path fill-rule="evenodd" clip-rule="evenodd" d="M70.7617 152.801H43.7529L42.9794 147.488H71.5352L70.7617 152.801Z" fill="#E3ECFA"/>
<path opacity="0.601028" fill-rule="evenodd" clip-rule="evenodd" d="M295.333 240.129C295.333 244.347 237.653 247.766 166.5 247.766C95.3473 247.766 37.6667 244.347 37.6667 240.129C37.6667 235.911 95.3473 232.492 166.5 232.492C237.653 232.492 295.333 235.911 295.333 240.129Z" fill="#E3ECFA"/>
<path fill-rule="evenodd" clip-rule="evenodd" d="M48.9498 41.8982L48.2921 28.6487L48.9626 28.6164L49.6203 41.8659L48.9498 41.8982Z" fill="#3454D1"/>
<path fill-rule="evenodd" clip-rule="evenodd" d="M49.1722 53.1877L48.9562 46.5789L49.4043 46.5468L49.6203 53.1549L49.1722 53.1877Z" fill="#3454D1"/>
<path fill-rule="evenodd" clip-rule="evenodd" d="M57.9373 164.091C57.3098 164.091 56.7931 163.597 56.7626 162.969L49.623 15.9071C49.5905 15.2346 50.1258 14.6705 50.7977 14.6705H249.828C250.455 14.6705 250.972 15.1641 251.002 15.7927L258.142 162.855C258.174 163.527 257.639 164.091 256.967 164.091H57.9373Z" fill="#3454D1"/>
<path fill-rule="evenodd" clip-rule="evenodd" d="M244.042 161.678H60.3673C59.7391 161.678 59.2218 161.185 59.1919 160.558L52.2781 18.5614C52.2455 17.89 52.7814 17.3269 53.4542 17.3269H247.906C248.534 17.3269 249.052 17.8196 249.082 18.4472L251.911 76.545C250.529 74.8071 248.981 73.1854 247.491 72.3161C246.429 71.6142 245.171 71.1746 243.803 71.0995C243.71 71.0942 243.617 71.0895 243.523 71.0849C241.107 68.752 241.583 63.9094 242.313 60.4136L234.984 64.4998C235.541 66.8447 235.604 69.685 233.693 71.0105C233.328 71.0318 232.982 71.0563 232.659 71.0856C231.459 71.1945 230.28 71.3678 229.229 71.5531C228.964 71.6002 228.704 71.662 228.45 71.7384C227.419 72.0252 226.279 72.6023 225.042 73.5334C219.967 77.3559 216.198 85.4538 216.198 85.4538L217.401 86.1139C216.284 87.3451 215.122 88.5485 213.921 89.7299C212.605 91.0162 211.287 92.2375 209.855 93.5763C209.817 93.5803 209.777 93.5842 209.734 93.5869C209.688 93.5896 209.639 93.5909 209.589 93.5909C209.277 93.5909 208.892 93.5404 208.477 93.4348C207.802 93.2675 207.06 92.9905 206.306 92.6426C206.349 91.8151 206.387 90.9916 206.419 90.1808L212.482 89.9822C212.833 86.7222 212.352 81.2933 211.539 75.6698C210.845 69.78 209.657 63.0733 208.391 56.2405L202.342 56.6244L200.843 25.8352C200.826 25.5111 200.542 25.2614 200.236 25.2614C200.229 25.2614 200.22 25.2621 200.211 25.2621C199.879 25.2787 199.623 25.5609 199.639 25.893L201.139 56.7007L176.352 58.2753C176.428 58.6106 176.504 58.946 176.579 59.28H176.578C176.58 59.2854 176.581 59.2907 176.582 59.2967C176.701 59.8266 176.818 60.3552 176.934 60.8818C177.897 65.3326 178.642 69.673 179.18 73.8229L175.139 73.1901C175.204 85.1291 173.92 96.0586 171.831 104.648L203.765 110.637L205.836 153.17C205.852 153.492 206.118 153.743 206.437 153.743L206.467 153.743C206.799 153.727 207.056 153.444 207.04 153.112L204.791 106.937C205.239 104.607 205.593 101.816 205.863 98.8737C206.076 98.972 206.296 99.0663 206.521 99.1573C207.341 99.4814 208.252 99.7536 209.295 99.8732C209.584 99.907 209.888 99.9256 210.2 99.9256C211.005 99.9256 211.873 99.8014 212.73 99.4933L213.177 99.3319L213.723 98.8823C215.264 97.6146 217.006 96.232 218.621 94.7823C220.036 93.5318 221.42 92.2235 222.748 90.8482C222.756 91.5667 222.772 92.3112 222.794 93.0842C222.803 93.4514 222.816 93.83 222.831 94.2178C223.021 99.4289 223.517 105.839 224.48 113.713H229.442L227.735 119.445L231.301 120.506C231.287 120.604 231.271 120.702 231.257 120.799L235.098 121.637L235.282 121.692C237.369 131.279 240.888 147.413 243.26 158.146C243.538 159.404 243.8 160.588 244.042 161.678ZM106.737 138.93L107.431 153.17C107.447 153.492 107.713 153.743 108.032 153.743L108.062 153.743C108.394 153.727 108.651 153.444 108.635 153.112L107.938 138.807L124.77 137.097C124.685 129.595 120.827 112.172 118.539 105.642L106.394 107.085L105.353 85.7188L109.131 85.5155C107.432 74.222 106.197 63.3728 105.836 53.3597L103.782 53.4387L102.438 25.8352C102.421 25.5111 102.143 25.2614 101.832 25.2614C101.824 25.2614 101.816 25.2621 101.807 25.2621C101.475 25.2787 101.218 25.5609 101.234 25.8929L102.578 53.4852L74.5025 54.569C74.4334 63.754 75.2111 76.1565 77.0599 87.2442L104.15 85.7838L105.194 107.228L87.5146 109.328C90.8138 120.962 90.952 131.506 91.8671 140.441L106.737 138.93ZM117.281 63.3967L117.28 95.358L149.518 97.3031L149.519 65.3419L117.281 63.3967ZM255.068 141.381C254.169 136.238 253.257 131.17 252.462 126.808L254.386 127.381L255.068 141.381ZM252.743 93.6434L249.698 92.9793C249.726 92.031 249.764 91.064 249.812 90.0832L250.323 89.5619C251.204 90.8801 252.024 92.2162 252.739 93.565L252.743 93.6434ZM210.286 93.466L210.365 93.4176C210.343 93.4342 210.317 93.4501 210.286 93.466Z" fill="#F4F9FD"/>
<path fill-rule="evenodd" clip-rule="evenodd" d="M108.129 153.465C107.814 153.465 107.552 153.215 107.535 152.893L101.42 25.9258C101.404 25.5946 101.658 25.313 101.986 25.2965C102.301 25.2826 102.591 25.5356 102.608 25.8682L108.724 152.835C108.739 153.166 108.486 153.449 108.159 153.465L108.129 153.465Z" fill="#3454D1"/>
<path fill-rule="evenodd" clip-rule="evenodd" d="M206.414 153.465C206.099 153.465 205.836 153.215 205.821 152.893L199.705 25.9258C199.689 25.5946 199.942 25.313 200.27 25.2965C200.581 25.2826 200.876 25.5356 200.893 25.8682L207.009 152.835C207.024 153.166 206.771 153.449 206.443 153.465L206.414 153.465Z" fill="#3454D1"/>
<path fill-rule="evenodd" clip-rule="evenodd" d="M157.272 153.465C156.956 153.465 156.694 153.215 156.678 152.893L150.563 25.9258C150.547 25.5946 150.8 25.313 151.128 25.2965C151.452 25.2826 151.734 25.5363 151.751 25.8682L157.866 152.835C157.882 153.166 157.628 153.449 157.301 153.465L157.272 153.465Z" fill="#3454D1"/>
<path fill-rule="evenodd" clip-rule="evenodd" d="M244.26 39.2418H59.52C59.1872 39.2418 58.9175 38.9445 58.9175 38.5777C58.9175 38.2109 59.1872 37.9136 59.52 37.9136H244.26C244.593 37.9136 244.863 38.2109 244.863 38.5777C244.863 38.9445 244.593 39.2418 244.26 39.2418Z" fill="#3454D1"/>
<path fill-rule="evenodd" clip-rule="evenodd" d="M76.7532 87.0722C74.9044 75.9845 74.1267 63.582 74.1958 54.397L102.271 53.3132L103.843 85.6118L76.7532 87.0722ZM105.047 85.5468L103.476 53.2667L105.529 53.1877C105.89 63.2008 107.125 74.05 108.824 85.3436L105.047 85.5468Z" fill="#DADFE4"/>
<path fill-rule="evenodd" clip-rule="evenodd" d="M104.252 85.7281L102.747 53.2344L103.9 53.1877L105.404 85.6626L104.252 85.7281Z" fill="#B0C9DF"/>
<path fill-rule="evenodd" clip-rule="evenodd" d="M109.388 83.9996L77.4716 85.7281C75.6317 74.6459 74.483 63.9048 74.1916 53.5886L106.109 51.8595C106.468 61.8684 107.697 72.7123 109.388 83.9996Z" fill="#3454D1"/>
<path fill-rule="evenodd" clip-rule="evenodd" d="M149.896 97.0176L117.357 95.0746L117.359 63.149L149.898 65.092L149.896 97.0176Z" fill="#DADFE4"/>
<path fill-rule="evenodd" clip-rule="evenodd" d="M148.855 96.3535L116.693 94.4215L117.072 62.4849L149.234 64.4162L148.855 96.3535Z" fill="#FFFFFE"/>
<path fill-rule="evenodd" clip-rule="evenodd" d="M206.302 90.0652C206.321 89.5539 206.339 89.0472 206.355 88.5465L211.873 88.2622C212.238 84.8754 212.005 80.503 211.422 75.5542C212.235 81.1777 212.716 86.6067 212.365 89.8667L206.302 90.0652ZM179.312 73.7459L179.063 73.7074C178.525 69.5575 177.78 65.217 176.817 60.7663C177.798 65.2436 178.655 69.596 179.312 73.7459Z" fill="#DADFE4"/>
<path fill-rule="evenodd" clip-rule="evenodd" d="M180.923 89.7126L212.147 88.1021C212.948 80.657 210.876 68.4659 208.543 55.8441L176.461 57.8865C179.135 69.695 181.064 80.7497 180.923 89.7126Z" fill="#6D5DD3"/>
<path fill-rule="evenodd" clip-rule="evenodd" d="M91.8258 140.45C90.9107 131.514 90.7726 120.971 87.4734 109.337L105.153 107.237L106.696 138.938L91.8258 140.45ZM107.897 138.816L106.353 107.094L118.498 105.651C120.785 112.181 124.644 129.604 124.729 137.106L107.897 138.816Z" fill="#DADFE4"/>
<path fill-rule="evenodd" clip-rule="evenodd" d="M106.898 138.855L105.404 107.122L106.565 106.979L108.06 138.733L106.898 138.855Z" fill="#B0C9DF"/>
<path fill-rule="evenodd" clip-rule="evenodd" d="M92.8874 139.519L124.625 136.094C125.017 128.674 122.293 116.704 119.286 104.323L87.4734 108.076C90.0495 119.665 92.5405 130.63 92.8874 139.519Z" fill="#FDC748"/>
<path fill-rule="evenodd" clip-rule="evenodd" d="M203.747 110.557L171.813 104.568C173.902 95.9789 175.186 85.0493 175.121 73.1104L179.162 73.7432C179.975 80.0029 180.319 85.831 180.239 90.9564L196.314 90.4311C196.722 90.987 197.119 91.4817 197.55 91.9851C198.02 92.5383 198.499 93.0888 199.006 93.6174C200.02 94.674 201.11 95.6781 202.321 96.6145C202.574 96.8051 202.832 96.9943 203.096 97.1809L203.747 110.557ZM204.773 106.857L204.342 97.9964C204.815 98.2807 205.313 98.549 205.845 98.794C205.575 101.737 205.221 104.528 204.773 106.857ZM206.288 92.5629C205.956 92.4101 205.623 92.2434 205.291 92.0668C204.867 91.8443 204.443 91.6066 204.018 91.3555L203.961 90.1808L206.4 90.1011C206.369 90.9119 206.331 91.7354 206.288 92.5629ZM202.775 90.5865C202.596 90.4717 202.417 90.3548 202.239 90.2372L202.757 90.22L202.775 90.5865Z" fill="#DADFE4"/>
<path fill-rule="evenodd" clip-rule="evenodd" d="M204.103 110.77L204.016 110.753L203.364 97.3769C203.763 97.6578 204.176 97.932 204.61 98.1924L205.042 107.053C204.765 108.492 204.453 109.755 204.103 110.77ZM204.287 91.5515C203.872 91.3057 203.457 91.0487 203.043 90.7824L203.025 90.4159L204.23 90.3767L204.287 91.5515Z" fill="#B0C9DF"/>
<path fill-rule="evenodd" clip-rule="evenodd" d="M180.194 90.9876C180.275 85.8622 179.931 80.0341 179.118 73.7744L179.366 73.813C180.292 79.6569 180.821 85.0998 180.745 89.9337L197.423 89.0757L196.137 90.2797C196.181 90.3415 196.225 90.4019 196.27 90.4623L180.194 90.9876ZM202.194 90.2684C202.117 90.2173 202.04 90.1662 201.964 90.115C201.389 89.7431 200.814 89.3394 200.25 88.9303L202.642 88.8074L202.712 90.2512L202.194 90.2684ZM203.917 90.212L203.846 88.745L206.409 88.6135C206.394 89.1143 206.376 89.621 206.356 90.1323L203.917 90.212Z" fill="#719CC6"/>
<path fill-rule="evenodd" clip-rule="evenodd" d="M202.434 89.7126L202.361 88.4395L203.615 88.3844L203.689 89.6781L202.434 89.7126Z" fill="#83A9CE"/>
<path fill-rule="evenodd" clip-rule="evenodd" d="M180.502 89.7126C180.578 84.9334 180.047 79.5522 179.118 73.7744L206.203 77.9515C206.366 80.3191 206.395 84.1423 206.26 88.4073L203.687 88.5373L202.479 88.5991L200.078 88.7205C199.568 88.3555 199.066 87.9865 198.579 87.63L197.241 88.8643L180.502 89.7126Z" fill="#3769A4"/>
<path fill-rule="evenodd" clip-rule="evenodd" d="M172.477 103.103L203.545 108.307C205.951 101.379 206.562 89.3023 207.009 76.759L175.004 71.7822C175.068 83.6228 174.563 94.5841 172.477 103.103Z" fill="#FFFFFE"/>
<path fill-rule="evenodd" clip-rule="evenodd" d="M248.09 74.4385C248.719 75.1113 249.249 75.7074 249.79 76.3628C250.33 77.0035 250.855 77.6516 251.373 78.3091C252.403 79.624 253.39 80.9775 254.323 82.3812C255.247 83.7942 256.157 85.2205 256.963 86.7416C257.783 88.2534 258.552 89.8092 259.182 91.4845L259.425 92.1059L259.485 92.2641L259.561 92.4924L259.706 92.9516C259.782 93.2419 259.845 93.5236 259.902 93.8019C259.945 94.0669 259.994 94.3392 260.025 94.5955C260.144 95.6221 260.151 96.5592 260.123 97.4656C260.069 99.2737 259.829 100.97 259.553 102.636C258.963 105.968 258.117 109.131 257.021 112.292L253.569 111.487C253.826 108.346 254.061 105.143 254.147 102.06C254.199 100.52 254.176 98.9913 254.076 97.5737C254.023 96.8669 253.929 96.1907 253.797 95.6247L253.697 95.2296L253.587 94.9126L253.214 94.141C251.959 91.5566 250.297 89.0143 248.526 86.5494C247.636 85.316 246.7 84.1039 245.754 82.9005C245.282 82.2978 244.8 81.7024 244.311 81.117L242.87 79.411L248.09 74.4385Z" fill="#BE5B52"/>
<path fill-rule="evenodd" clip-rule="evenodd" d="M253.97 110.299L251.503 112.863L256.316 115.612C256.316 115.612 257.981 113.468 257.329 111.277L253.97 110.299Z" fill="#BD5B52"/>
<path fill-rule="evenodd" clip-rule="evenodd" d="M248.183 116.696L252.843 118.268L256.152 115.671L251.367 112.956L248.183 116.696Z" fill="#BD5B52"/>
<path fill-rule="evenodd" clip-rule="evenodd" d="M261.447 127.566L230.917 120.907C232.546 110.196 234.722 99.9791 237.576 90.3767L268.106 97.0349C265.41 106.372 263.278 116.705 261.447 127.566Z" fill="#3769A4"/>
<path fill-rule="evenodd" clip-rule="evenodd" d="M257.275 128.23L227.596 119.391L236.435 89.7126L266.113 98.5503L257.275 128.23Z" fill="#FFFFFE"/>
<path fill-rule="evenodd" clip-rule="evenodd" d="M230.251 54.5342C230.237 54.9009 230.076 55.1898 229.894 55.1797C229.711 55.1708 229.575 54.8655 229.59 54.4988C229.605 54.1321 229.765 53.8425 229.948 53.852C230.13 53.8621 230.266 54.1675 230.251 54.5342Z" fill="#132529"/>
<path fill-rule="evenodd" clip-rule="evenodd" d="M230.253 55.18C230.253 55.18 229.27 57.5456 228.26 58.663C228.901 59.3809 230.06 59.1172 230.06 59.1172L230.253 55.18Z" fill="#A92D2F"/>
<path fill-rule="evenodd" clip-rule="evenodd" d="M232.074 52.5217L232.201 52.4606C232.27 52.3895 232.256 52.2867 232.17 52.2305C231.308 51.6716 230.428 51.9071 230.391 51.9177C230.286 51.947 230.228 52.0402 230.262 52.1257C230.297 52.2108 230.411 52.2559 230.514 52.2276C230.543 52.2204 231.232 52.0431 231.919 52.4885C231.964 52.5178 232.021 52.5284 232.074 52.5217Z" fill="#132529"/>
<path fill-rule="evenodd" clip-rule="evenodd" d="M242.316 60.4927C241.582 63.9216 241.102 68.6717 243.534 70.96C243.534 70.96 242.527 74.4385 235.988 74.4385C228.798 74.4385 232.569 71.3861 232.569 71.3861C235.57 70.4819 235.588 67.165 234.938 64.5007L242.316 60.4927Z" fill="#BD5B52"/>
<path fill-rule="evenodd" clip-rule="evenodd" d="M226.327 234.709C226.247 234.709 226.174 234.716 226.108 234.735C226.003 234.763 225.93 234.814 225.884 234.893C225.802 235.033 225.83 235.103 225.859 235.143C226.077 235.452 227.285 235.459 228.175 235.333C227.735 235.106 226.885 234.709 226.327 234.709ZM227.073 235.635C226.46 235.635 225.868 235.55 225.674 235.275C225.605 235.179 225.553 235.015 225.689 234.781C225.766 234.649 225.887 234.56 226.051 234.516C226.849 234.299 228.507 235.251 228.577 235.292L228.631 235.408L228.54 235.501C228.235 235.562 227.644 235.635 227.073 235.635Z" fill="#3769A4"/>
<path fill-rule="evenodd" clip-rule="evenodd" d="M227.451 233.382L227.383 233.386C227.179 233.406 227.165 233.487 227.161 233.513C227.104 233.837 227.87 234.649 228.454 235.003C228.397 234.627 228.237 233.857 227.842 233.53C227.723 233.431 227.594 233.382 227.451 233.382ZM228.592 235.319L228.546 235.309C227.972 235.051 226.843 234.017 226.938 233.477C226.96 233.35 227.052 233.192 227.363 233.16C227.596 233.137 227.804 233.202 227.988 233.355C228.589 233.854 228.702 235.141 228.706 235.195L228.658 235.298L228.592 235.319Z" fill="#3769A4"/>
<path fill-rule="evenodd" clip-rule="evenodd" d="M234.237 235.148H229.272L228.924 223.859H233.89L234.237 235.148Z" fill="#BD5B52"/>
<path fill-rule="evenodd" clip-rule="evenodd" d="M229.115 234.484H234.273C234.466 234.484 234.631 234.617 234.671 234.804L235.55 238.957C235.642 239.388 235.305 239.795 234.86 239.788C233 239.757 230.312 239.649 227.975 239.649C225.24 239.649 223.515 239.797 220.309 239.797C218.37 239.797 217.857 237.857 218.671 237.682C222.376 236.882 224.755 236.797 227.973 234.848C228.323 234.637 228.708 234.484 229.115 234.484Z" fill="#0A1629"/>
<path fill-rule="evenodd" clip-rule="evenodd" d="M245.676 71.7825C250.322 71.8308 256.816 83.2547 256.816 83.2547L249.615 90.3767C249.615 90.3767 244.896 88.2466 242.273 83.0492C239.527 77.6038 240.925 71.7329 245.676 71.7825Z" fill="#3769A4"/>
<path fill-rule="evenodd" clip-rule="evenodd" d="M249.761 90.3767C249.922 86.9654 250.21 83.3745 250.688 79.7279C250.733 79.3848 250.755 79.0437 250.755 78.7072C250.757 76.1323 249.485 73.8034 247.519 72.4463C251.605 74.9374 256.152 83.5615 256.152 83.5615L255.151 84.6277L249.761 90.3767Z" fill="#3A81EB"/>
<path fill-rule="evenodd" clip-rule="evenodd" d="M223.906 76.4428C222.871 81.5704 222.129 92.0999 224.676 112.956H250.041C250.236 109.577 248.605 94.8328 250.77 79.0023C251.355 74.7297 248.156 70.8641 243.854 70.6266C243.761 70.6213 243.669 70.6167 243.576 70.6121C240.337 70.4557 235.646 70.3528 232.793 70.6127C231.602 70.7209 230.433 70.8931 229.39 71.0771C226.635 71.5646 224.46 73.6986 223.906 76.4428Z" fill="#3769A4"/>
<path fill-rule="evenodd" clip-rule="evenodd" d="M250.238 113.241H224.68C223.717 105.368 223.221 98.9574 223.031 93.7463C225.603 93.0975 228.522 90.8216 229.531 88.0198C231.829 85.6922 234.696 82.0131 234.966 77.9496C234.98 77.7278 234.988 77.508 234.988 77.2901C234.986 73.9086 233.224 71.0464 230.177 71.0464C229.699 71.0464 229.189 71.1168 228.65 71.2669C228.904 71.1905 229.164 71.1287 229.429 71.0816C230.48 70.8963 231.658 70.723 232.858 70.6141C234.127 70.4985 235.755 70.454 237.46 70.454C239.618 70.454 241.899 70.5257 243.723 70.6134C243.817 70.618 243.91 70.6227 244.003 70.628C247.995 70.8485 251.044 74.1663 251.042 78.0485C251.041 78.3819 251.019 78.7199 250.972 79.0599C250.08 85.5813 249.827 91.9187 249.827 97.3649C249.827 104.448 250.254 110.022 250.254 112.527C250.254 112.803 250.249 113.042 250.238 113.241ZM222.994 92.6127C222.972 91.8397 222.956 91.0952 222.948 90.3767C222.97 90.3534 222.992 90.3302 223.015 90.307C222.975 91.0209 222.974 91.7905 222.994 92.6127Z" fill="#3454D1"/>
<path fill-rule="evenodd" clip-rule="evenodd" d="M222.634 94.3612C222.619 93.9068 222.606 93.4633 222.597 93.0331C222.608 93.468 222.62 93.9115 222.634 94.3612Z" fill="#9AA9B8"/>
<path fill-rule="evenodd" clip-rule="evenodd" d="M222.998 94.3612C222.984 93.9606 222.971 93.5655 222.96 93.1781C222.94 92.32 222.942 91.5167 222.981 90.7715C223.17 90.5692 223.359 90.3654 223.546 90.1602C223.715 89.9758 223.883 89.7908 224.05 89.6043L226.645 91.0689C226.645 91.0689 227.979 90.0639 229.588 88.3844C228.565 91.3087 225.605 93.6841 222.998 94.3612Z" fill="#3576D6"/>
<path fill-rule="evenodd" clip-rule="evenodd" d="M233.705 229.562H233.703L233.531 223.859H233.533L233.705 229.562Z" fill="#BEBFBB"/>
<path fill-rule="evenodd" clip-rule="evenodd" d="M233.573 229.835H229.085V229.825L228.924 223.859H233.411L233.573 229.835Z" fill="#914642"/>
<path fill-rule="evenodd" clip-rule="evenodd" d="M243.489 54.3767C242.94 59.0651 242.862 61.8325 240.318 64.1487C236.494 67.6315 230.717 65.2441 229.832 60.5075C229.035 56.2441 230.066 49.2944 234.842 47.6111C239.547 45.9528 244.037 49.689 243.489 54.3767Z" fill="#BD5B52"/>
<path fill-rule="evenodd" clip-rule="evenodd" d="M233.619 56.0553C232.149 56.3842 231.484 52.9589 232.982 51.6435C231.65 50.9858 229.723 50.0335 229.082 48.6017C228.344 46.9574 230.346 44.9844 232.066 45.0666C231.511 43.9702 232.742 41.0362 236.248 42.1438C239.835 43.2763 241.414 44.9567 241.414 44.9567C241.414 44.9567 242.572 41.1572 245.013 44.226C247.182 46.9535 246.324 49.283 246.324 49.283C246.324 49.283 249.542 52.3012 248.71 54.5479C247.877 56.7952 246.047 57.5897 246.047 57.5897C246.047 57.5897 246.533 62.871 242.618 64.1397C238.704 65.409 236.238 62.7967 236.565 61.2892C234.035 61.4267 231.456 58.083 233.619 56.0553Z" fill="#233862"/>
<path fill-rule="evenodd" clip-rule="evenodd" d="M235.542 56.0359C235.375 57.3359 234.694 58.5293 233.92 59.2903C232.756 60.4345 231.679 59.616 231.589 58.1334C231.507 56.7989 232.015 54.5954 233.382 54.0071C234.729 53.4279 235.732 54.549 235.542 56.0359Z" fill="#BD5B52"/>
<path fill-rule="evenodd" clip-rule="evenodd" d="M274.747 228.957L270.419 230.5L266.113 219.425L270.44 217.882L274.747 228.957Z" fill="#BD5B52"/>
<path fill-rule="evenodd" clip-rule="evenodd" d="M267.239 230.768C267.177 230.818 267.124 230.87 267.083 230.925C267.018 231.012 266.993 231.097 267.005 231.187C267.028 231.348 267.093 231.385 267.14 231.399C267.503 231.507 268.456 230.766 269.078 230.117C268.591 230.211 267.678 230.423 267.239 230.768ZM268.399 231.035C267.917 231.415 267.4 231.713 267.076 231.618C266.963 231.585 266.82 231.488 266.783 231.219C266.762 231.069 266.802 230.923 266.904 230.788C267.397 230.124 269.289 229.847 269.369 229.835L269.483 229.894L269.469 230.023C269.267 230.26 268.848 230.682 268.399 231.035Z" fill="#3769A4"/>
<path fill-rule="evenodd" clip-rule="evenodd" d="M267.165 229.526L267.113 229.571C266.966 229.713 267.004 229.785 267.017 229.808C267.173 230.098 268.278 230.263 268.955 230.18C268.678 229.919 268.076 229.413 267.563 229.4C267.409 229.395 267.277 229.437 267.165 229.526ZM269.259 230.343L269.217 230.364C268.606 230.515 267.08 230.401 266.82 229.917C266.759 229.804 266.734 229.623 266.959 229.406C267.127 229.243 267.331 229.166 267.57 229.172C268.351 229.192 269.235 230.135 269.272 230.175L269.298 230.285L269.259 230.343Z" fill="#3769A4"/>
<path fill-rule="evenodd" clip-rule="evenodd" d="M269.773 229.098L273.804 225.941C273.954 225.823 274.172 225.821 274.328 225.936L277.792 228.512C278.151 228.779 278.161 229.29 277.808 229.557C276.334 230.673 273.489 232.957 271.751 234.494C269.719 236.293 271.301 235.09 268.918 237.2C267.477 238.475 265.714 237.439 266.194 236.778C268.378 233.775 268.842 231.987 269.123 230.071C269.181 229.68 269.454 229.348 269.773 229.098Z" fill="#0A1629"/>
<path fill-rule="evenodd" clip-rule="evenodd" d="M199.704 88.2617L197.921 84.3999L193.064 87.4225C193.064 87.4225 194.664 90.7115 197.978 90.3487L199.704 88.2617Z" fill="#BD5B52"/>
<path fill-rule="evenodd" clip-rule="evenodd" d="M193.479 83.4693L192.317 84.4508C191.563 85.0875 191.539 86.2236 192.264 86.8909L193.167 87.7203L198.376 84.5648L195.25 83.2113C194.659 82.956 193.969 83.056 193.479 83.4693Z" fill="#BD5B52"/>
<path fill-rule="evenodd" clip-rule="evenodd" d="M268.175 225.602L268.106 225.422L268.175 225.602ZM272.422 224.078L271.311 221.203L271.313 221.202L272.424 224.078L272.422 224.078Z" fill="#BEBFBB"/>
<path fill-rule="evenodd" clip-rule="evenodd" d="M268.338 225.851L268.266 225.661L267.442 223.492L271.599 221.202L272.754 224.241L268.338 225.851Z" fill="#914642"/>
<path fill-rule="evenodd" clip-rule="evenodd" d="M233.573 113.62C233.573 113.62 241.586 150.422 244.651 164.083C248.007 179.043 265.666 224.523 265.666 224.523L273.418 220.33C273.418 220.33 265.125 184.649 259.064 165.184C256.865 149.093 250.145 113.62 250.145 113.62H233.573Z" fill="#0A1629"/>
<path fill-rule="evenodd" clip-rule="evenodd" d="M263.457 222.132L265.063 225.187L274.747 221.523L273.976 218.546L263.457 222.132Z" fill="#3454D1"/>
<path fill-rule="evenodd" clip-rule="evenodd" d="M244.606 164.755C244.556 164.527 244.505 164.305 244.454 164.091C244.455 164.091 244.456 164.091 244.457 164.092C244.505 164.29 244.554 164.493 244.607 164.701C244.606 164.719 244.606 164.737 244.606 164.755Z" fill="#A0A29F"/>
<path fill-rule="evenodd" clip-rule="evenodd" d="M244.576 164.619C244.575 164.618 244.574 164.618 244.573 164.617C244.543 164.484 244.513 164.354 244.485 164.227H244.486C244.515 164.355 244.545 164.486 244.576 164.619Z" fill="#939692"/>
<path fill-rule="evenodd" clip-rule="evenodd" d="M244.8 164.091H244.798C244.794 164.073 244.791 164.055 244.788 164.037C244.625 163.238 244.45 162.368 244.261 161.434H244.263C244.45 162.368 244.627 163.24 244.789 164.039C244.792 164.056 244.796 164.074 244.8 164.091Z" fill="#1D5697"/>
<path fill-rule="evenodd" clip-rule="evenodd" d="M244.198 161.434H244.197C243.992 160.41 243.77 159.296 243.534 158.114C243.77 159.297 243.992 160.409 244.198 161.434Z" fill="#8593A0"/>
<path fill-rule="evenodd" clip-rule="evenodd" d="M244.853 164.755C244.802 164.541 244.754 164.331 244.708 164.127C244.678 163.994 244.649 163.863 244.622 163.734C244.619 163.719 244.615 163.703 244.612 163.688C244.455 162.96 244.284 162.166 244.103 161.316C243.868 160.221 243.615 159.034 243.346 157.771C241.683 149.95 239.437 139.265 237.558 130.315C237.744 130.252 237.943 130.222 238.152 130.222C238.263 130.222 238.376 130.23 238.491 130.247C244.295 131.05 244.958 152.263 244.853 164.755Z" fill="black"/>
<path fill-rule="evenodd" clip-rule="evenodd" d="M224.688 113.62C224.688 113.62 222.65 149.286 222.985 163.833C223.332 178.964 227.602 228.507 227.602 228.507H235.723C235.723 228.507 237.05 179.848 237.603 164.987C238.206 148.788 241.542 113.62 241.542 113.62H224.688Z" fill="#0A1629"/>
<path fill-rule="evenodd" clip-rule="evenodd" d="M225.604 225.187L226.02 228.507H235.923L236.229 225.544L225.604 225.187Z" fill="#3454D1"/>
<path fill-rule="evenodd" clip-rule="evenodd" d="M231.581 79.3308C230.48 81.2953 229.219 83.1551 227.894 84.949C226.55 86.7304 225.1 88.4155 223.577 90.015C222.059 91.619 220.462 93.1328 218.823 94.5695C217.206 96.0082 215.462 97.3803 213.921 98.6384L213.374 99.0845L212.927 99.2447C211.736 99.6691 210.525 99.7423 209.489 99.6217C208.446 99.503 207.534 99.2328 206.713 98.9112C205.072 98.2568 203.752 97.3803 202.528 96.4669C201.316 95.5376 200.225 94.5412 199.211 93.4927C198.703 92.9681 198.224 92.4217 197.753 91.8728C197.275 91.3192 196.84 90.7761 196.384 90.1494L199.005 87.7156C200.028 88.4695 201.122 89.2841 202.215 89.986C203.304 90.707 204.404 91.3838 205.501 91.9538C206.588 92.5285 207.699 92.9938 208.67 93.2324C209.153 93.3543 209.596 93.4017 209.929 93.3833C210.267 93.3609 210.462 93.2897 210.56 93.2152L209.566 93.8215C211.188 92.3143 212.655 90.9745 214.119 89.5556C215.566 88.1446 216.955 86.7007 218.28 85.2166C219.595 83.7239 220.863 82.2048 222.03 80.6271C223.21 79.0566 224.269 77.4189 225.286 75.7667L231.581 79.3308Z" fill="#BE5B52"/>
<path fill-rule="evenodd" clip-rule="evenodd" d="M234.879 77.9199C234.424 84.6911 226.54 90.3767 226.54 90.3767L216.307 84.8494C216.307 84.8494 220.076 76.8703 225.153 73.1039C231.425 68.4508 235.226 72.7662 234.879 77.9199Z" fill="#3769A4"/>
<path fill-rule="evenodd" clip-rule="evenodd" d="M226.54 90.3767L217.51 85.4999L216.307 84.8495C216.307 84.8495 220.076 76.8704 225.153 73.104C227.036 71.707 228.697 71.1181 230.089 71.1181C233.138 71.1181 234.9 73.9383 234.901 77.2702C234.901 77.4848 234.894 77.7014 234.879 77.92C234.424 84.6911 226.54 90.3767 226.54 90.3767Z" fill="#3454D1"/>
</g>
<defs>
<clipPath id="clip0_1134_8533">
<rect width="332.045" height="247.705" fill="white" transform="translate(0.477692 0.0605469)"/>
</clipPath>
</defs>
</svg>
