<svg width="17" height="16" viewBox="0 0 17 16" fill="none" xmlns="http://www.w3.org/2000/svg">
<g clip-path="url(#clip0_2693_12935)">
<path fill-rule="evenodd" clip-rule="evenodd" d="M11.7013 14.7555C10.7413 14.7201 8.02065 14.3441 5.17131 11.4955C2.32265 8.64614 1.94731 5.92614 1.91131 4.96548C1.85798 3.50148 2.97931 2.07948 4.27465 1.52414C4.43063 1.45679 4.60145 1.43114 4.77033 1.44973C4.93922 1.46831 5.10037 1.53048 5.23798 1.63014C6.30465 2.40748 7.04065 3.58348 7.67265 4.50814C7.8117 4.7113 7.87116 4.95851 7.83968 5.20267C7.80821 5.44684 7.68801 5.67089 7.50198 5.83214L6.20131 6.79814C6.13847 6.84352 6.09424 6.91016 6.07683 6.98569C6.05942 7.06122 6.07001 7.1405 6.10665 7.20881C6.40131 7.74414 6.92531 8.54148 7.52531 9.14148C8.12598 9.74148 8.96065 10.3001 9.53331 10.6281C9.60512 10.6685 9.68963 10.6797 9.76948 10.6596C9.84934 10.6395 9.91846 10.5896 9.96265 10.5201L10.8093 9.23148C10.965 9.02471 11.1946 8.88619 11.4501 8.84493C11.7056 8.80367 11.9672 8.86288 12.18 9.01014C13.118 9.65948 14.2126 10.3828 15.014 11.4088C15.1217 11.5474 15.1903 11.7124 15.2124 11.8866C15.2346 12.0607 15.2096 12.2376 15.14 12.3988C14.582 13.7008 13.17 14.8095 11.7013 14.7555Z" fill="#000"/>
</g>
<defs>
<clipPath id="clip0_2693_12935">
<rect width="16" height="16" fill="white" transform="translate(0.666656)"/>
</clipPath>
</defs>
</svg>
