<svg width="10" height="10" viewBox="0 0 10 10" fill="none" xmlns="http://www.w3.org/2000/svg">
<path d="M5.62516 0.833252C5.62516 0.488074 5.34534 0.208252 5.00016 0.208252C4.65499 0.208252 4.37516 0.488074 4.37516 0.833252V4.37492H0.833496C0.488318 4.37492 0.208496 4.65474 0.208496 4.99992C0.208496 5.3451 0.488318 5.62492 0.833496 5.62492H4.37516V9.16659C4.37516 9.51176 4.65499 9.79159 5.00016 9.79159C5.34534 9.79159 5.62516 9.51176 5.62516 9.16659V5.62492H9.16683C9.51201 5.62492 9.79183 5.3451 9.79183 4.99992C9.79183 4.65474 9.51201 4.37492 9.16683 4.37492H5.62516V0.833252Z" fill="#000"/>


</svg>
