<svg width="24" height="24" viewBox="0 0 24 24" fill="none" xmlns="http://www.w3.org/2000/svg">
<rect width="24" height="24" rx="12" fill="#006FFD"/>
<g clip-path="url(#clip0_2352_31221)">

<path d="M16.6767 10.3627L13.6789 9.92698L12.3388 7.21017C12.3022 7.13579 12.242 7.07557 12.1676 7.03897C11.981 6.94687 11.7543 7.02362 11.6611 7.21017L10.321 9.92698L7.32314 10.3627C7.24049 10.3745 7.16492 10.4134 7.10707 10.4725C7.03712 10.5444 6.99858 10.6411 6.99991 10.7414C7.00124 10.8417 7.04233 10.9373 7.11415 11.0073L9.28312 13.122L8.77069 16.108C8.75867 16.1775 8.76636 16.2489 8.79288 16.3142C8.81939 16.3795 8.86368 16.4361 8.92072 16.4775C8.97776 16.519 9.04526 16.5436 9.11557 16.5486C9.18589 16.5536 9.2562 16.5388 9.31854 16.5059L11.9999 15.0961L14.6813 16.5059C14.7545 16.5449 14.8395 16.5578 14.921 16.5437C15.1264 16.5083 15.2646 16.3134 15.2292 16.108L14.7167 13.122L16.8857 11.0073C16.9447 10.9495 16.9837 10.8739 16.9955 10.7913C17.0274 10.5846 16.8833 10.3934 16.6767 10.3627Z" fill="#fff"/>

<g mask="url(#mask0_2352_31221)">
<rect x="7" y="7" width="10" height="10" fill="white"/>
</g>
</g>
<defs>
<clipPath id="clip0_2352_31221">
<rect width="10" height="10" fill="white" transform="translate(7 7)"/>
</clipPath>
</defs>
</svg>
