<svg width="20" height="20" viewBox="0 0 20 20" fill="none" xmlns="http://www.w3.org/2000/svg">
<path d="M9.99967 17C5.39717 17 1.66634 11 1.66634 11C1.66634 11 5.39717 5 9.99967 5C14.6022 5 18.333 11 18.333 11C18.333 11 14.6022 17 9.99967 17Z" stroke="#71727A" stroke-width="1.66667" stroke-linejoin="round"/>
<path d="M9.99967 13.5C9.44714 13.5 8.91724 13.2366 8.52654 12.7678C8.13583 12.2989 7.91634 11.663 7.91634 11C7.91634 10.337 8.13583 9.70107 8.52654 9.23223C8.91724 8.76339 9.44714 8.5 9.99967 8.5C10.5522 8.5 11.0821 8.76339 11.4728 9.23223C11.8635 9.70107 12.083 10.337 12.083 11C12.083 11.663 11.8635 12.2989 11.4728 12.7678C11.0821 13.2366 10.5522 13.5 9.99967 13.5Z" stroke="#71727A" stroke-width="1.66667" stroke-linejoin="round"/>
</svg>
