<svg width="21" height="20" viewBox="0 0 21 20" fill="none" xmlns="http://www.w3.org/2000/svg">
<path d="M3 4.16667C3 3.72464 3.17559 3.30072 3.48816 2.98816C3.80072 2.67559 4.22464 2.5 4.66667 2.5H16.3333C16.7754 2.5 17.1993 2.67559 17.5118 2.98816C17.8244 3.30072 18 3.72464 18 4.16667V15.8333C18 16.2754 17.8244 16.6993 17.5118 17.0118C17.1993 17.3244 16.7754 17.5 16.3333 17.5H4.66667C4.22464 17.5 3.80072 17.3244 3.48816 17.0118C3.17559 16.6993 3 16.2754 3 15.8333V4.16667Z" stroke="#000" stroke-width="1.8" stroke-linecap="round" stroke-linejoin="round"/>
<path d="M8 9.16675L10.5 11.6667L13 9.16675" stroke="#000" stroke-width="2" stroke-linecap="round" stroke-linejoin="round"/>
</svg>
