<svg width="21" height="20" viewBox="0 0 21 20" fill="none" xmlns="http://www.w3.org/2000/svg">
<path d="M5.1875 8.12495C5.10462 8.12495 5.02513 8.15788 4.96653 8.21648C4.90792 8.27509 4.875 8.35457 4.875 8.43745V16.5625C4.875 16.735 5.015 16.875 5.1875 16.875H15.8125C15.8954 16.875 15.9749 16.842 16.0335 16.7834C16.0921 16.7248 16.125 16.6453 16.125 16.5625V8.43745C16.125 8.35457 16.0921 8.27509 16.0335 8.21648C15.9749 8.15788 15.8954 8.12495 15.8125 8.12495H14.5625C14.3139 8.12495 14.0754 8.02618 13.8996 7.85037C13.7238 7.67455 13.625 7.43609 13.625 7.18745C13.625 6.93881 13.7238 6.70036 13.8996 6.52454C14.0754 6.34872 14.3139 6.24995 14.5625 6.24995H15.8125C17.02 6.24995 18 7.22995 18 8.43745V16.5625C18 17.1426 17.7695 17.699 17.3593 18.1092C16.9491 18.5195 16.3927 18.75 15.8125 18.75H5.1875C4.60734 18.75 4.05094 18.5195 3.6407 18.1092C3.23047 17.699 3 17.1426 3 16.5625V8.43745C3 7.22995 3.98 6.24995 5.1875 6.24995H6.4375C6.68614 6.24995 6.9246 6.34872 7.10041 6.52454C7.27623 6.70036 7.375 6.93881 7.375 7.18745C7.375 7.43609 7.27623 7.67455 7.10041 7.85037C6.9246 8.02618 6.68614 8.12495 6.4375 8.12495H5.1875ZM10.2787 0.221203C10.3078 0.192101 10.3423 0.169012 10.3802 0.153258C10.4182 0.137504 10.4589 0.129395 10.5 0.129395C10.5411 0.129395 10.5818 0.137504 10.6198 0.153258C10.6577 0.169012 10.6922 0.192101 10.7213 0.221203L14.3412 3.8412C14.3851 3.88491 14.4149 3.94064 14.427 4.00133C14.4391 4.06203 14.4329 4.12495 14.4092 4.18212C14.3855 4.23929 14.3454 4.28814 14.2939 4.32247C14.2424 4.3568 14.1819 4.37506 14.12 4.37495H11.4375V11.5625C11.4375 11.8111 11.3387 12.0496 11.1629 12.2254C10.9871 12.4012 10.7486 12.5 10.5 12.5C10.2514 12.5 10.0129 12.4012 9.83709 12.2254C9.66127 12.0496 9.5625 11.8111 9.5625 11.5625V4.37495H6.88C6.81811 4.37506 6.75758 4.3568 6.70609 4.32247C6.6546 4.28814 6.61446 4.23929 6.59076 4.18212C6.56706 4.12495 6.56087 4.06203 6.57298 4.00133C6.58508 3.94064 6.61493 3.88491 6.65875 3.8412L10.2787 0.221203Z" fill="#000"/>
</svg>
