<svg width="20" height="20" viewBox="0 0 20 20" fill="none" xmlns="http://www.w3.org/2000/svg">
<path d="M3.45166 3.33329L5.00832 13.4466C5.03633 13.6482 5.13697 13.8326 5.29134 13.9651C5.44571 14.0977 5.64319 14.1694 5.84666 14.1666H15C15.1793 14.1666 15.3538 14.1088 15.4976 14.0018C15.6414 13.8948 15.7469 13.7442 15.7983 13.5725L18.2983 5.23912C18.3356 5.1147 18.3433 4.98328 18.3207 4.85536C18.2982 4.72744 18.2461 4.60656 18.1685 4.50237C18.091 4.39818 17.9901 4.31356 17.874 4.25526C17.758 4.19697 17.6299 4.16661 17.5 4.16662H5.26666L4.99166 2.38496C4.96388 2.18099 4.86108 1.9947 4.70332 1.86246C4.54972 1.73279 4.35431 1.66322 4.15332 1.66662H2.49999C2.39055 1.66662 2.28219 1.68818 2.18109 1.73006C2.07998 1.77194 1.98812 1.83332 1.91073 1.9107C1.83335 1.98808 1.77197 2.07995 1.73009 2.18105C1.68821 2.28216 1.66666 2.39052 1.66666 2.49996C1.66666 2.60939 1.68821 2.71775 1.73009 2.81886C1.77197 2.91996 1.83335 3.01183 1.91073 3.08921C1.98812 3.16659 2.07998 3.22798 2.18109 3.26986C2.28219 3.31174 2.39055 3.33329 2.49999 3.33329H3.45166ZM6.54832 12.5L5.52332 5.83329H16.38L14.38 12.5H6.54832ZM8.33332 16.6666C8.33332 17.1087 8.15773 17.5326 7.84517 17.8451C7.53261 18.1577 7.10868 18.3333 6.66666 18.3333C6.22463 18.3333 5.80071 18.1577 5.48815 17.8451C5.17558 17.5326 4.99999 17.1087 4.99999 16.6666C4.99999 16.2246 5.17558 15.8007 5.48815 15.4881C5.80071 15.1756 6.22463 15 6.66666 15C7.10868 15 7.53261 15.1756 7.84517 15.4881C8.15773 15.8007 8.33332 16.2246 8.33332 16.6666ZM15.8333 16.6666C15.8333 17.1087 15.6577 17.5326 15.3452 17.8451C15.0326 18.1577 14.6087 18.3333 14.1667 18.3333C13.7246 18.3333 13.3007 18.1577 12.9881 17.8451C12.6756 17.5326 12.5 17.1087 12.5 16.6666C12.5 16.2246 12.6756 15.8007 12.9881 15.4881C13.3007 15.1756 13.7246 15 14.1667 15C14.6087 15 15.0326 15.1756 15.3452 15.4881C15.6577 15.8007 15.8333 16.2246 15.8333 16.6666Z" fill="#000"/>
</svg>
