<svg width="20" height="20" viewBox="0 0 20 20" fill="none" xmlns="http://www.w3.org/2000/svg">
<path d="M5.42084 1.66663H14.5875C14.7169 1.66663 14.8445 1.69675 14.9602 1.7546C15.0759 1.81246 15.1765 1.89646 15.2542 1.99996L17.5042 4.99996V17.5C17.5042 17.721 17.4164 17.9329 17.2601 18.0892C17.1038 18.2455 16.8918 18.3333 16.6708 18.3333H3.3375C3.11649 18.3333 2.90453 18.2455 2.74825 18.0892C2.59197 17.9329 2.50417 17.721 2.50417 17.5V4.99996L4.75417 1.99996C4.83179 1.89646 4.93245 1.81246 5.04816 1.7546C5.16387 1.69675 5.29147 1.66663 5.42084 1.66663ZM15.8375 6.66663H4.17084V16.6666H15.8375V6.66663ZM15.4208 4.99996L14.1708 3.33329H5.8375L4.5875 4.99996H15.4208ZM7.50417 8.33329V9.99996C7.50417 10.663 7.76756 11.2989 8.2364 11.7677C8.70524 12.2366 9.34113 12.5 10.0042 12.5C10.6672 12.5 11.3031 12.2366 11.7719 11.7677C12.2408 11.2989 12.5042 10.663 12.5042 9.99996V8.33329H14.1708V9.99996C14.1708 11.105 13.7318 12.1648 12.9504 12.9462C12.169 13.7276 11.1092 14.1666 10.0042 14.1666C8.8991 14.1666 7.83929 13.7276 7.05789 12.9462C6.27649 12.1648 5.8375 11.105 5.8375 9.99996V8.33329H7.50417Z" fill="#000"/>
</svg>
