<svg width="10" height="10" viewBox="0 0 10 10" fill="none" xmlns="http://www.w3.org/2000/svg">
<path d="M9.67672 3.36267L6.6789 2.92698L5.33879 0.210171C5.30219 0.135786 5.24197 0.0755698 5.16759 0.0389678C4.98104 -0.0531276 4.75434 0.0236186 4.66106 0.210171L3.32096 2.92698L0.323138 3.36267C0.240488 3.37447 0.164923 3.41344 0.107068 3.47247C0.0371247 3.54436 -0.0014172 3.64108 -8.88382e-05 3.74137C0.00123952 3.84166 0.0423295 3.93732 0.114152 4.00733L2.28312 6.12198L1.77069 9.108C1.75867 9.17746 1.76636 9.2489 1.79288 9.31421C1.81939 9.37953 1.86368 9.43611 1.92072 9.47753C1.97776 9.51896 2.04526 9.54357 2.11557 9.54859C2.18589 9.5536 2.2562 9.53881 2.31854 9.5059L4.99993 8.09613L7.68132 9.5059C7.75452 9.54486 7.83954 9.55785 7.921 9.54368C8.12645 9.50826 8.26459 9.31344 8.22917 9.108L7.71674 6.12198L9.8857 4.00733C9.94474 3.94948 9.9837 3.87391 9.99551 3.79126C10.0274 3.58464 9.88334 3.39336 9.67672 3.36267Z" fill="#000"/>
</svg>
