<svg width="21" height="20" viewBox="0 0 21 20" fill="none" xmlns="http://www.w3.org/2000/svg">
<path d="M7.16667 7.49992H13.8333M7.16667 10.8333H12.1667M15.5 3.33325C16.163 3.33325 16.7989 3.59664 17.2678 4.06549C17.7366 4.53433 18 5.17021 18 5.83325V12.4999C18 13.163 17.7366 13.7988 17.2678 14.2677C16.7989 14.7365 16.163 14.9999 15.5 14.9999H11.3333L7.16667 17.4999V14.9999H5.5C4.83696 14.9999 4.20107 14.7365 3.73223 14.2677C3.26339 13.7988 3 13.163 3 12.4999V5.83325C3 5.17021 3.26339 4.53433 3.73223 4.06549C4.20107 3.59664 4.83696 3.33325 5.5 3.33325H15.5Z" stroke="#000" stroke-width="2" stroke-linecap="round" stroke-linejoin="round"/>
</svg>
