<svg width="21" height="20" viewBox="0 0 21 20" fill="none" xmlns="http://www.w3.org/2000/svg">
<g clip-path="url(#clip0_1595_13346)">
<path d="M10.5001 1.66675C15.1026 1.66675 18.8334 5.39758 18.8334 10.0001C18.8334 14.6026 15.1026 18.3334 10.5001 18.3334C9.08172 18.3355 7.68649 17.974 6.44759 17.2834L6.19342 17.1351L3.66676 17.8784C3.52926 17.9189 3.38369 17.9237 3.24385 17.8922C3.10401 17.8606 2.97454 17.7939 2.8677 17.6984C2.76087 17.6028 2.68021 17.4815 2.63337 17.3461C2.58654 17.2106 2.57508 17.0654 2.60009 16.9242L2.62176 16.8334L3.36509 14.3067C2.57922 13.0078 2.16474 11.5182 2.16676 10.0001C2.16676 5.39758 5.89759 1.66675 10.5001 1.66675ZM10.5001 3.33341C9.30645 3.3332 8.13464 3.65346 7.10703 4.26076C6.07943 4.86806 5.23372 5.74012 4.65822 6.78587C4.08273 7.83161 3.79856 9.0127 3.83539 10.2058C3.87222 11.3988 4.22869 12.5602 4.86759 13.5684C5.03259 13.8284 5.10342 14.1484 5.04759 14.4659L5.01509 14.6017L4.64759 15.8526L5.89842 15.4851C6.25926 15.3784 6.63426 15.4434 6.93176 15.6326C7.80536 16.1857 8.79566 16.5281 9.82438 16.6326C10.8531 16.7371 11.892 16.6009 12.859 16.2347C13.826 15.8686 14.6946 15.2825 15.3961 14.5228C16.0975 13.7632 16.6127 12.8507 16.9008 11.8577C17.1889 10.8646 17.2421 9.81815 17.0561 8.801C16.8701 7.78386 16.4501 6.82392 15.8292 5.99706C15.2084 5.17021 14.4037 4.49911 13.4788 4.03682C12.5539 3.57452 11.5341 3.33371 10.5001 3.33341ZM8.08509 5.98675C8.17735 5.94679 8.27842 5.93155 8.37837 5.94251C8.47831 5.95346 8.57368 5.99025 8.65509 6.04925C9.07509 6.35591 9.40842 6.76758 9.69509 7.16925L9.96759 7.56425L10.0951 7.75175C10.1687 7.85931 10.2048 7.98811 10.1978 8.11824C10.1909 8.24837 10.1413 8.3726 10.0568 8.47175L9.99426 8.53508L9.22426 9.10675C9.1872 9.13358 9.16112 9.17294 9.15085 9.21752C9.14059 9.26211 9.14683 9.30891 9.16842 9.34925C9.34342 9.66591 9.65259 10.1384 10.0076 10.4934C10.3634 10.8484 10.8576 11.1784 11.1959 11.3726C11.2693 11.4142 11.3576 11.4009 11.4176 11.3467L11.4493 11.3092L11.9501 10.5467C12.042 10.4243 12.1778 10.3421 12.329 10.3176C12.4802 10.293 12.635 10.328 12.7609 10.4151L13.2134 10.7309C13.6634 11.0517 14.0959 11.3967 14.4384 11.8342C14.5021 11.9163 14.5426 12.014 14.5556 12.117C14.5687 12.2201 14.5538 12.3247 14.5126 12.4201C14.1826 13.1901 13.3468 13.8459 12.4784 13.8142L12.3459 13.8059L12.1868 13.7909C12.1567 13.7874 12.1267 13.7835 12.0968 13.7792L11.8984 13.7459C11.1284 13.6009 9.89426 13.1642 8.61509 11.8859C7.33676 10.6067 6.90009 9.37258 6.75509 8.60258L6.72176 8.40425L6.70092 8.23091L6.69009 8.08508C6.68877 8.06426 6.68766 8.04343 6.68676 8.02258C6.65509 7.15258 7.31426 6.31675 8.08509 5.98675Z" fill="#000"/>
</g>
<defs>
<clipPath id="clip0_1595_13346">
<rect width="20" height="20" fill="white" transform="translate(0.5)"/>
</clipPath>
</defs>
</svg>
